<?xml version="1.0" encoding="UTF-8" standalone="no"?>
<svg
   xmlns:dc="http://purl.org/dc/elements/1.1/"
   xmlns:cc="http://creativecommons.org/ns#"
   xmlns:rdf="http://www.w3.org/1999/02/22-rdf-syntax-ns#"
   xmlns:svg="http://www.w3.org/2000/svg"
   xmlns="http://www.w3.org/2000/svg"
   xmlns:sodipodi="http://sodipodi.sourceforge.net/DTD/sodipodi-0.dtd"
   xmlns:inkscape="http://www.inkscape.org/namespaces/inkscape"
   width="24"
   height="24"
   viewBox="0 0 24 24"
   id="svg2"
   version="1.1"
   inkscape:version="0.91 r13725"
   sodipodi:docname="control-bookmarks-24px.svg">
  <metadata
     id="metadata10">
    <rdf:RDF>
      <cc:Work
         rdf:about="">
        <dc:format>image/svg+xml</dc:format>
        <dc:type
           rdf:resource="http://purl.org/dc/dcmitype/StillImage" />
        <dc:title></dc:title>
      </cc:Work>
    </rdf:RDF>
  </metadata>
  <defs
     id="defs8" />
  <sodipodi:namedview
     pagecolor="#ffffff"
     bordercolor="#666666"
     borderopacity="1"
     objecttolerance="10"
     gridtolerance="10"
     guidetolerance="10"
     inkscape:pageopacity="0"
     inkscape:pageshadow="2"
     inkscape:window-width="1536"
     inkscape:window-height="801"
     id="namedview6"
     showgrid="false"
     inkscape:zoom="26.333333"
     inkscape:cx="12"
     inkscape:cy="12"
     inkscape:window-x="-8"
     inkscape:window-y="-8"
     inkscape:window-maximized="1"
     inkscape:current-layer="svg2" />
  <path
     d="m 4.3544304,0.02531646 c -0.21,0 -0.39,0.03 -0.57,0.09 -1.17,0.24 -2.1,1.17000004 -2.34,2.34000004 -0.09,0.18 -0.09,0.36 -0.09,0.57 l 0,16.4999995 c 0,2.49 2.01,4.5 4.5,4.5 l 16.4999996,0 0,-3 -16.4999996,0 c -0.84,0 -1.5,-0.66 -1.5,-1.5 0,-0.84 0.66,-1.5 1.5,-1.5 l 16.4999996,0 0,-16.4999995 c 0,-0.84000004 -0.66,-1.50000004 -1.5,-1.50000004 l -1.5,0 0,9.00000004 -3,-3 -3,3 0,-9.00000004 -8.9999996,0 z"
     id="path4"
     inkscape:connector-curvature="0" />
</svg>
