<?xml version="1.0" encoding="UTF-8" standalone="no"?>
<svg
   xmlns:dc="http://purl.org/dc/elements/1.1/"
   xmlns:cc="http://creativecommons.org/ns#"
   xmlns:rdf="http://www.w3.org/1999/02/22-rdf-syntax-ns#"
   xmlns:svg="http://www.w3.org/2000/svg"
   xmlns="http://www.w3.org/2000/svg"
   xmlns:sodipodi="http://sodipodi.sourceforge.net/DTD/sodipodi-0.dtd"
   xmlns:inkscape="http://www.inkscape.org/namespaces/inkscape"
   width="24"
   height="24"
   viewBox="0 0 24 24"
   id="svg2"
   version="1.1"
   inkscape:version="0.91 r13725"
   sodipodi:docname="control-canvas-visibility-24px.svg">
  <metadata
     id="metadata10">
    <rdf:RDF>
      <cc:Work
         rdf:about="">
        <dc:format>image/svg+xml</dc:format>
        <dc:type
           rdf:resource="http://purl.org/dc/dcmitype/StillImage" />
        <dc:title></dc:title>
      </cc:Work>
    </rdf:RDF>
  </metadata>
  <defs
     id="defs8" />
  <sodipodi:namedview
     pagecolor="#ffffff"
     bordercolor="#666666"
     borderopacity="1"
     objecttolerance="10"
     gridtolerance="10"
     guidetolerance="10"
     inkscape:pageopacity="0"
     inkscape:pageshadow="2"
     inkscape:window-width="1536"
     inkscape:window-height="801"
     id="namedview6"
     showgrid="false"
     inkscape:zoom="26.333333"
     inkscape:cx="12"
     inkscape:cy="12"
     inkscape:window-x="-8"
     inkscape:window-y="-8"
     inkscape:window-maximized="1"
     inkscape:current-layer="svg2" />
  <path
     d="m 12.102658,2.835443 c -7.5899998,0 -12.08999977,9 -12.08999977,9 0,0 4.49999997,9 12.08999977,9 7.41,0 11.91,-9 11.91,-9 0,0 -4.5,-9 -11.91,-9 z m -0.09,3 c 3.33,0 6,2.7 6,6 0,3.33 -2.67,6 -6,6 -3.2999998,0 -5.9999998,-2.67 -5.9999998,-6 0,-3.3 2.7,-6 5.9999998,-6 z m 0,3 c -1.65,0 -2.9999998,1.35 -2.9999998,3 0,1.65 1.3499998,3 2.9999998,3 1.65,0 3,-1.35 3,-3 0,-0.3 -0.12,-0.57 -0.18,-0.84 -0.24,0.48 -0.72,0.84 -1.32,0.84 -0.84,0 -1.5,-0.66 -1.5,-1.5 0,-0.6 0.36,-1.08 0.84,-1.32 -0.27,-0.09 -0.54,-0.18 -0.84,-0.18 z"
     id="path4"
     inkscape:connector-curvature="0" />
</svg>
