<?xml version="1.0" encoding="utf-8"?>
<!-- Generator: Adobe Illustrator 19.2.0, SVG Export Plug-In . SVG Version: 6.00 Build 0)  -->
<svg version="1.1" id="Layer_1" xmlns="http://www.w3.org/2000/svg" xmlns:xlink="http://www.w3.org/1999/xlink" x="0px" y="0px"
	 viewBox="0 0 18 18" style="enable-background:new 0 0 18 18;" xml:space="preserve">
<path d="M18,13.4L18,5c0-0.5-0.6-0.7-0.9-0.4L15,6.7c-0.1-0.2-2.9-2.8-6.4-2.9C5.9,3.7,3,4.9,1.3,8.1C0,10.7-0.1,13.7,0,13.9
	c0.1,0.3,0.4,0.4,0.5,0.4c0.3,0,0.4-0.1,0.5-0.3c0.1-0.4,0.3-1.4,1.1-2.9c0.6-1,2.1-2.5,3.7-2.6c2.9-0.1,4.3,1.4,5,2.1L8.5,13
	c-0.3,0.3-0.1,0.9,0.4,0.9l8.6,0C17.8,13.9,18,13.7,18,13.4z"/>
</svg>
