<?xml version="1.0" encoding="utf-8"?>
<!-- Generator: Adobe Illustrator 19.2.0, SVG Export Plug-In . SVG Version: 6.00 Build 0)  -->
<svg version="1.1" id="Layer_1" xmlns="http://www.w3.org/2000/svg" xmlns:xlink="http://www.w3.org/1999/xlink" x="0px" y="0px"
	 viewBox="0 0 18 18" style="enable-background:new 0 0 18 18;" xml:space="preserve">
<path d="M12.7,3.4V1.6c0-0.2-0.2-0.4-0.5-0.4H2.7c-0.2,0-0.5,0.2-0.5,0.4V14c0,0.2,0.2,0.4,0.5,0.4l1.9,0V3.9c0-0.3,0.2-0.5,0.4-0.5
	H12.7z"/>
<g>
	<path d="M16.5,10v7.6c0,0.3-0.2,0.5-0.4,0.5H6.5C6.2,18,6,17.8,6,17.6V5.2C6,5,6.2,4.8,6.5,4.8l4.9,0c0.2,0,0.4,0.2,0.4,0.4v3.8
		c0,0.3,0.2,0.5,0.4,0.5H14l2.1,0C16.3,9.5,16.5,9.7,16.5,10z"/>
	<path d="M16.3,7.8l-2.5,0c-0.1,0-0.2-0.1-0.2-0.2V5c0-0.2,0.2-0.3,0.4-0.1l2.5,2.6C16.6,7.6,16.5,7.8,16.3,7.8z"/>
</g>
<path d="M8.5,2.7h-2c-0.7,0-1.2-0.6-1.2-1.2V1.2C5.3,0.5,5.8,0,6.5,0h2c0.7,0,1.2,0.6,1.2,1.2v0.2C9.7,2.1,9.2,2.7,8.5,2.7z"/>
</svg>
