<?xml version="1.0" encoding="utf-8"?>
<!-- Generator: Adobe Illustrator 19.2.0, SVG Export Plug-In . SVG Version: 6.00 Build 0)  -->
<svg version="1.1" id="Layer_1" xmlns="http://www.w3.org/2000/svg" xmlns:xlink="http://www.w3.org/1999/xlink" x="0px" y="0px"
	 viewBox="0 0 18 18" style="enable-background:new 0 0 18 18;" xml:space="preserve">
<path d="M11.9,15.6v1.9c0,0.3-0.2,0.5-0.5,0.5H1.2c-0.3,0-0.5-0.2-0.5-0.5V4.3c0-0.3,0.2-0.5,0.5-0.5l2,0v11.3
	c0,0.3,0.2,0.5,0.5,0.5H11.9z"/>
<g>
	<path d="M16.1,5.5v8.2c0,0.3-0.2,0.5-0.5,0.5H5.3c-0.3,0-0.5-0.2-0.5-0.5V0.4C4.8,0.2,5.1,0,5.3,0l5.3,0c0.3,0,0.5,0.2,0.5,0.5v4.1
		c0,0.3,0.2,0.5,0.5,0.5h1.8l2.3,0C15.9,5,16.1,5.3,16.1,5.5z"/>
	<path d="M15.8,3.2l-2.6,0C13.1,3.2,13,3.1,13,3V0.2c0-0.2,0.3-0.3,0.4-0.2L16,2.8C16.1,3,16,3.2,15.8,3.2z"/>
</g>
</svg>
