<svg id="Layer_1" data-name="Layer 1" xmlns="http://www.w3.org/2000/svg" viewBox="0 0 14.27 18.06"><defs><style>.cls-1{fill:#231f20;}</style></defs><title>past</title><path class="cls-1" d="M12.87,3.39V1.59a0.45,0.45,0,0,0-.45-0.44H2.83a0.45,0.45,0,0,0-.45.44V14a0.45,0.45,0,0,0,.45.44h1.9V3.84a0.45,0.45,0,0,1,.44-0.45h7.7Z" transform="translate(-2.37 0.06)"/><path class="cls-1" d="M16.65,9.94v7.61a0.45,0.45,0,0,1-.44.45H6.61a0.45,0.45,0,0,1-.44-0.45V5.18a0.45,0.45,0,0,1,.44-0.44l4.93,0a0.45,0.45,0,0,1,.44.44V9a0.44,0.44,0,0,0,.44.45H16.2A0.45,0.45,0,0,1,16.65,9.94Z" transform="translate(-2.37 0.06)"/><path class="cls-1" d="M16.43,7.76H14a0.21,0.21,0,0,1-.22-0.21V5a0.22,0.22,0,0,1,.38-0.14l2.46,2.56A0.21,0.21,0,0,1,16.43,7.76Z" transform="translate(-2.37 0.06)"/><rect class="cls-1" x="3.02" width="4.45" height="2.74" rx="1.25" ry="1.25"/></svg>