<?xml version="1.0" encoding="utf-8"?>
<!-- Generator: Adobe Illustrator 19.2.0, SVG Export Plug-In . SVG Version: 6.00 Build 0)  -->
<svg version="1.1" id="Layer_1" xmlns="http://www.w3.org/2000/svg" xmlns:xlink="http://www.w3.org/1999/xlink" x="0px" y="0px"
	 viewBox="0 0 18 18" style="enable-background:new 0 0 18 18;" xml:space="preserve">
<style type="text/css">
	.st0{fill:#FFFFFF;}
</style>
<g>
	<path d="M9,8.8c-0.3,0-0.5,0.2-0.5,0.5c0,0.3,0.2,0.5,0.5,0.5c0.3,0,0.5-0.2,0.5-0.5C9.5,9.1,9.3,8.8,9,8.8z"/>
	<path d="M15.5,4.8c0.8-1.1,1-2,0.9-3.1c-0.1-0.9-0.8-1.6-1-1.7h0L9,7.8L2.7,0h0c-0.2,0.1-0.9,0.8-1,1.7C1.5,2.8,1.7,3.8,2.5,4.8
		C4,6.8,7.3,9.9,7.3,9.9S6.2,11.2,6,11.5c-0.2,0.3-0.4,0.7-0.5,0.9c-1.5,0.1-2.7,1.3-2.7,2.8C2.8,16.7,4,18,5.6,18
		c1.5,0,2.8-1.3,2.8-2.8c0-0.9-0.4-1.7-1.1-2.2c-0.1-0.4,1.3-1.8,1.7-1.8c0.4,0,1.8,1.5,1.7,1.8c-0.6,0.5-1.1,1.3-1.1,2.2
		c0,1.5,1.3,2.8,2.8,2.8c1.5,0,2.8-1.3,2.8-2.8c0-1.5-1.2-2.7-2.7-2.8c-0.1-0.2-0.3-0.6-0.5-0.9c-0.2-0.3-1.4-1.5-1.4-1.5
		S14,6.8,15.5,4.8z M5.6,16.5c-0.8,0-1.5-0.7-1.5-1.5s0.7-1.5,1.5-1.5c0.8,0,1.5,0.7,1.5,1.5S6.4,16.5,5.6,16.5z M9,9.9
		c-0.3,0-0.5-0.2-0.5-0.5c0-0.3,0.2-0.5,0.5-0.5c0.3,0,0.5,0.2,0.5,0.5C9.5,9.6,9.3,9.9,9,9.9z M12.4,13.6c0.8,0,1.5,0.7,1.5,1.5
		s-0.6,1.5-1.5,1.5c-0.8,0-1.5-0.7-1.5-1.5S11.6,13.6,12.4,13.6z"/>
	<circle class="st0" cx="9" cy="9.4" r="0.5"/>
</g>
</svg>
