<?xml version="1.0" encoding="utf-8"?>
<!-- Generator: Adobe Illustrator 19.2.0, SVG Export Plug-In . SVG Version: 6.00 Build 0)  -->
<svg version="1.1" id="Layer_1" xmlns="http://www.w3.org/2000/svg" xmlns:xlink="http://www.w3.org/1999/xlink" x="0px" y="0px"
	 viewBox="0 0 18 18" style="enable-background:new 0 0 18 18;" xml:space="preserve">
<path d="M0,13.4L0,5c0-0.5,0.6-0.7,0.9-0.4L3,6.7c0.1-0.2,2.9-2.8,6.4-2.9c2.8,0,5.6,1.1,7.3,4.3c1.3,2.5,1.4,5.5,1.3,5.7
	c-0.1,0.3-0.4,0.4-0.5,0.4c-0.3,0-0.4-0.1-0.5-0.3c-0.1-0.4-0.3-1.4-1.1-2.9c-0.6-1-2.1-2.5-3.7-2.6c-2.9-0.1-4.3,1.4-5,2.1L9.5,13
	c0.3,0.3,0.1,0.9-0.4,0.9l-8.6,0C0.2,13.9,0,13.7,0,13.4z"/>
</svg>
