<?xml version="1.0" encoding="utf-8"?>
<!-- Generator: Adobe Illustrator 19.2.0, SVG Export Plug-In . SVG Version: 6.00 Build 0)  -->
<svg version="1.1" id="Layer_1" xmlns="http://www.w3.org/2000/svg" xmlns:xlink="http://www.w3.org/1999/xlink" x="0px" y="0px"
	 viewBox="0 0 18 18" style="enable-background:new 0 0 18 18;" xml:space="preserve">
<style type="text/css">
	.st0{fill:#939393;}
</style>
<path d="M17.2,17.4c0,0.3-0.3,0.6-0.6,0.6h-13l-0.7-0.7l-0.6-0.7c-0.1-0.1-0.2-0.3-0.2-0.4V0.6C2.2,0.3,2.4,0,2.8,0h13.8
	c0.3,0,0.6,0.3,0.6,0.6V17.4z"/>
<path class="st0" d="M14.7,1.8v5.4c0,0.3-0.3,0.6-0.6,0.6H5.3c-0.3,0-0.6-0.3-0.6-0.6V1.8c0-0.3,0.3-0.6,0.6-0.6h8.8
	C14.4,1.2,14.7,1.4,14.7,1.8z"/>
<path class="st0" d="M12.3,12.2v4.1c0,0.3-0.3,0.6-0.6,0.6H7.6c-0.3,0-0.6-0.3-0.6-0.6v-4.1c0-0.3,0.3-0.6,0.6-0.6h4.1
	C12,11.6,12.3,11.9,12.3,12.2z"/>
</svg>
