<?xml version="1.0" encoding="utf-8"?>
<!-- Generator: Adobe Illustrator 19.2.0, SVG Export Plug-In . SVG Version: 6.00 Build 0)  -->
<svg version="1.1" id="Layer_1" xmlns="http://www.w3.org/2000/svg" xmlns:xlink="http://www.w3.org/1999/xlink" x="0px" y="0px"
	 viewBox="0 0 18 18" style="enable-background:new 0 0 18 18;" xml:space="preserve">
<style type="text/css">
	.st0{fill:#939393;}
</style>
<path d="M16.5,17.4c0,0.3-0.3,0.6-0.6,0.6H3l-0.7-0.7l-0.6-0.7c-0.1-0.1-0.2-0.3-0.2-0.4V0.6C1.5,0.3,1.8,0,2.1,0h13.8
	c0.3,0,0.6,0.3,0.6,0.6V17.4z"/>
<path class="st0" d="M14,1.8v5.4c0,0.3-0.3,0.6-0.6,0.6H4.6C4.3,7.7,4,7.5,4,7.1V1.8c0-0.3,0.3-0.6,0.6-0.6h8.8
	C13.7,1.2,14,1.4,14,1.8z"/>
<path class="st0" d="M11.6,12.2v4.1c0,0.3-0.3,0.6-0.6,0.6H7c-0.3,0-0.6-0.3-0.6-0.6v-4.1c0-0.3,0.3-0.6,0.6-0.6H11
	C11.3,11.6,11.6,11.9,11.6,12.2z"/>
</svg>
