<svg id="Layer_1" data-name="Layer 1" xmlns="http://www.w3.org/2000/svg" viewBox="0 0 14.26 18.04"><defs><style>.cls-1{fill:#231f20;}</style></defs><title>new</title><path class="cls-1" d="M18,7.06V17.41a0.61,0.61,0,0,1-.61.61h-13a0.61,0.61,0,0,1-.61-0.61V0.59A0.61,0.61,0,0,1,4.35,0L11,0a0.61,0.61,0,0,1,.6.61V5.84a0.61,0.61,0,0,0,.6.61H17.4A0.61,0.61,0,0,1,18,7.06Z" transform="translate(-3.74 0.02)"/><path class="cls-1" d="M17.7,4.1H14.36a0.29,0.29,0,0,1-.3-0.29V0.33A0.3,0.3,0,0,1,14.57.14l3.35,3.48A0.28,0.28,0,0,1,17.7,4.1Z" transform="translate(-3.74 0.02)"/></svg>