<?xml version="1.0" encoding="utf-8"?>
<!-- Generator: Adobe Illustrator 19.2.0, SVG Export Plug-In . SVG Version: 6.00 Build 0)  -->
<svg version="1.1" id="Layer_1" xmlns="http://www.w3.org/2000/svg" xmlns:xlink="http://www.w3.org/1999/xlink" x="0px" y="0px"
	 viewBox="0 0 18 18" style="enable-background:new 0 0 18 18;" xml:space="preserve">
<path d="M16.1,7.1v10.4c0,0.3-0.3,0.6-0.6,0.6h-13c-0.3,0-0.6-0.3-0.6-0.6V0.6C1.9,0.3,2.1,0,2.5,0l6.7,0c0.3,0,0.6,0.3,0.6,0.6v5.2
	c0,0.3,0.3,0.6,0.6,0.6l5.1,0C15.9,6.5,16.1,6.7,16.1,7.1z"/>
<path d="M15.8,4.1l-3.3,0c-0.2,0-0.3-0.1-0.3-0.3V0.3c0-0.3,0.3-0.4,0.5-0.2l3.3,3.5C16.2,3.8,16.1,4.1,15.8,4.1z"/>
</svg>
