<?xml version="1.0" encoding="utf-8"?>
<!-- Generator: Adobe Illustrator 19.2.0, SVG Export Plug-In . SVG Version: 6.00 Build 0)  -->
<svg version="1.1" id="Layer_1" xmlns="http://www.w3.org/2000/svg" xmlns:xlink="http://www.w3.org/1999/xlink" x="0px" y="0px"
	 viewBox="0 0 18 18" style="enable-background:new 0 0 18 18;" xml:space="preserve">
<style type="text/css">
	.st0{fill:#939393;}
	.st1{fill:#FFFFFF;}
</style>
<path d="M18,11.3V15H0v-4.7c2-1,3.3-3.1,4.5-4.7C4.7,5.3,5,5.1,5.3,5C5.6,4.9,6,5.1,6.3,5.3c1.8,1.1,3.4,2.5,4.7,4
	c0.4,0.5,1.1,1.1,1.7,0.8c0.4-0.2,0.5-0.6,0.6-0.9c0.1-0.4,0.4-0.7,0.8-0.7c0.2,0,0.4,0.1,0.6,0.3C15.8,9.5,17,10.5,18,11.3z"/>
<path class="st0" d="M0,1l0,9.3C2.3,9,2.9,7.8,4.4,5.8C4.6,5.5,5,5.1,5.3,5c0.4-0.1,0.9,0.2,1.2,0.4c1.9,1.3,3.1,2.2,4.5,4
	c0.5,0.6,1.1,1.3,1.7,1c0.4-0.2,0.5-0.7,0.6-1.1c0.2-0.5,0.4-0.8,0.9-0.8c0.2,0,0.4,0.1,0.6,0.3c1,0.9,1.8,1.5,3.2,2.5L18,1L0,1z"/>
<path class="st1" d="M13.7,4.6c0,0.8-0.7,1.5-1.5,1.5c-0.8,0-1.5-0.7-1.5-1.5c0-0.8,0.7-1.5,1.5-1.5C13.1,3.1,13.7,3.7,13.7,4.6z"/>
</svg>
