<?xml version="1.0" encoding="utf-8"?>
<!-- Generator: Adobe Illustrator 19.2.0, SVG Export Plug-In . SVG Version: 6.00 Build 0)  -->
<svg version="1.1" id="Layer_1" xmlns="http://www.w3.org/2000/svg" xmlns:xlink="http://www.w3.org/1999/xlink" x="0px" y="0px"
	 viewBox="0 0 18 18" style="enable-background:new 0 0 18 18;" xml:space="preserve">
<g>
	<path d="M10.4,14.8H7.6c-0.1,0-0.1,0-0.1-0.1V3.3c0-0.1,0-0.1,0.1-0.1h2.8c0.1,0,0.1,0,0.1,0.1v11.4C10.5,14.8,10.5,14.8,10.4,14.8
		z"/>
	<path d="M6.1,3.7h5.8c0.1,0,0.1-0.1,0.1-0.2L9.1,0C9.1,0,9,0,8.9,0L6.1,3.5C6,3.6,6,3.7,6.1,3.7z"/>
	<path d="M11.9,14.3H6.1c-0.1,0-0.1,0.1-0.1,0.2L8.9,18C9,18,9.1,18,9.1,18l2.9-3.5C12.1,14.4,12,14.3,11.9,14.3z"/>
</g>
<g>
	<path d="M3.2,10.4V7.6c0-0.1,0-0.1,0.1-0.1h11.4c0.1,0,0.1,0,0.1,0.1v2.8c0,0.1,0,0.1-0.1,0.1H3.4C3.3,10.5,3.2,10.5,3.2,10.4z"/>
	<path d="M14.4,6.1v5.8c0,0.1,0.1,0.1,0.2,0.1L18,9.1c0.1,0,0.1-0.1,0-0.2L14.5,6C14.5,6,14.4,6,14.4,6.1z"/>
	<path d="M3.7,11.9V6.1C3.7,6,3.6,6,3.6,6L0.1,8.9C0,9,0,9,0.1,9.1L3.6,12C3.6,12,3.7,12,3.7,11.9z"/>
</g>
</svg>
