<?xml version="1.0" encoding="utf-8"?>
<!-- Generator: Adobe Illustrator 19.2.0, SVG Export Plug-In . SVG Version: 6.00 Build 0)  -->
<svg version="1.1" id="Layer_1" xmlns="http://www.w3.org/2000/svg" xmlns:xlink="http://www.w3.org/1999/xlink" x="0px" y="0px"
	 viewBox="0 0 18 18" style="enable-background:new 0 0 18 18;" xml:space="preserve">
<style type="text/css">
	.st0{fill:none;stroke:#000000;stroke-width:0.75;stroke-miterlimit:10;}
</style>
<path d="M3.9,12.1l-1.7-2c0,0,0-0.1,0-0.1l11.4-4.3c0.1,0,0.1,0,0.2,0.1l1.7,2c0,0,0,0.1,0,0.1L4,12.2C4,12.2,3.9,12.2,3.9,12.1z"/>
<path d="M12.1,4.3l4.4,5.3c0.1,0.1,0.2,0.1,0.2,0l1.3-4c0-0.1,0-0.1-0.1-0.2l-5.7-1.3C12.1,4.1,12,4.2,12.1,4.3z"/>
<path d="M5.9,13.6L1.5,8.3c-0.1-0.1-0.2-0.1-0.2,0l-1.3,4c0,0.1,0,0.1,0.1,0.2l5.7,1.3C5.9,13.7,6,13.7,5.9,13.6z"/>
<line class="st0" x1="9" y1="0" x2="9" y2="18"/>
</svg>
