<?xml version="1.0" encoding="utf-8"?>
<!-- Generator: Adobe Illustrator 19.2.0, SVG Export Plug-In . SVG Version: 6.00 Build 0)  -->
<svg version="1.1" id="Layer_1" xmlns="http://www.w3.org/2000/svg" xmlns:xlink="http://www.w3.org/1999/xlink" x="0px" y="0px"
	 viewBox="0 0 18 18" style="enable-background:new 0 0 18 18;" xml:space="preserve">
<style type="text/css">
	.st0{fill:none;}
</style>
<g>
	<path class="st0" d="M13.2-2.2"/>
</g>
<g>
	<path class="st0" d="M13.2,0"/>
</g>
<path d="M14.5,16.8l-2.2,1.2c-0.1,0.1-0.2,0-0.3-0.1l-3.3-6.1c-0.1-0.1-0.2-0.1-0.3-0.1l-3.6,2.6c-0.1,0.1-0.3,0-0.3-0.2L4,0.2
	C4,0.1,4.2,0,4.4,0.1l11.2,8.1c0.1,0.1,0.1,0.3-0.1,0.4L11.4,10c-0.1,0-0.2,0.2-0.1,0.3l3.3,6.2C14.6,16.6,14.6,16.7,14.5,16.8z"/>
</svg>
