<?xml version="1.0" encoding="utf-8"?>
<!-- Generator: Adobe Illustrator 19.2.0, SVG Export Plug-In . SVG Version: 6.00 Build 0)  -->
<svg version="1.1" id="Layer_1" xmlns="http://www.w3.org/2000/svg" xmlns:xlink="http://www.w3.org/1999/xlink" x="0px" y="0px"
	 viewBox="0 0 18 18" style="enable-background:new 0 0 18 18;" xml:space="preserve">
<style type="text/css">
	.st0{fill:none;stroke:#000000;stroke-linejoin:round;stroke-miterlimit:10;}
</style>
<polygon class="st0" points="16.9,3.6 15,5 12.2,7 3.4,7 1.1,3.6 5.9,0.5 15,0.5 "/>
<polygon class="st0" points="16.9,14.1 12.2,17.5 3.4,17.5 1.1,14.1 3.4,12.5 6,10.7 11.9,10.7 15,10.7 "/>
<line class="st0" x1="3.4" y1="7" x2="3.4" y2="17.5"/>
<line class="st0" x1="11.9" y1="7" x2="11.9" y2="17.5"/>
<line class="st0" x1="5.9" y1="0.5" x2="6" y2="10.7"/>
<line class="st0" x1="15" y1="0.5" x2="15" y2="10.7"/>
<polygon class="st0" points="16.9,3.6 16.9,14.1 12.2,17.5 3.4,17.5 1.1,14.1 1.1,3.6 5.9,0.5 15,0.5 "/>
</svg>
