<?xml version="1.0" encoding="utf-8"?>
<!-- Generator: Adobe Illustrator 19.2.0, SVG Export Plug-In . SVG Version: 6.00 Build 0)  -->
<svg version="1.1" id="Layer_1" xmlns="http://www.w3.org/2000/svg" xmlns:xlink="http://www.w3.org/1999/xlink" x="0px" y="0px"
	 viewBox="0 0 18 18" style="enable-background:new 0 0 18 18;" xml:space="preserve">
<style type="text/css">
	.st0{stroke:#000000;stroke-linejoin:round;stroke-miterlimit:10;}
	.st1{fill:#FFFFFF;}
</style>
<polygon class="st0" points="14,4 13.9,17.6 6.7,13.4 6.7,10.2 6.7,9.7 6.7,9.4 10.4,8.6 10.1,7.3 6.7,8 6.7,0.5 "/>
<circle class="st1" cx="14.3" cy="13" r="3"/>
<polygon class="st1" points="9.9,8.7 6.2,9.5 6.2,8.1 9.6,7.4 "/>
<polygon points="6.2,9.5 4.8,9.8 5.2,11.8 0.1,10.2 4,6.5 4.4,8.5 6.2,8.1 "/>
<g>
	<rect x="13.7" y="10.5" width="1.2" height="5.2"/>
	<rect x="13.7" y="10.5" transform="matrix(4.595353e-011 -1 1 4.595353e-011 1.2734 27.3435)" width="1.2" height="5.2"/>
</g>
</svg>
