<?xml version="1.0" encoding="utf-8"?>
<!-- Generator: Adobe Illustrator 19.2.0, SVG Export Plug-In . SVG Version: 6.00 Build 0)  -->
<svg version="1.1" id="Layer_1" xmlns="http://www.w3.org/2000/svg" xmlns:xlink="http://www.w3.org/1999/xlink" x="0px" y="0px"
	 viewBox="0 0 18 18" style="enable-background:new 0 0 18 18;" xml:space="preserve">
<style type="text/css">
	.st0{stroke:#000000;stroke-width:0.75;stroke-linejoin:round;stroke-miterlimit:10;}
</style>
<path class="st0" d="M5.4,6.7C4.8,6.5,2.4,6.3,0.3,7.1l0,2.3c0,0.4,3,1.2,7,1.3c3.2,0.1,5.5-0.1,7.7-0.5l0,1.4l2.7-3.2l-2.9-1.9
	l0,1.6c-2.6,0.5-6.3,0.4-8.1,0.3c-3.1-0.2-4-0.3-4.8-0.8C2.5,7,5.2,6.7,5.4,6.7z"/>
<path class="st0" d="M11.9,12.5c0.2,0.7-0.4,3.8-1.1,5.2l-2.4,0c-0.4,0-1.1-3.1-1.2-7.1C7.2,7.4,7.3,5.1,7.7,3L6.4,3l3.2-2.7
	l1.9,2.9l-1.6,0c-0.5,2.6-0.4,6.3-0.3,8c0.2,3,0.4,4.3,0.9,5.1C11.1,15.8,11.9,12.8,11.9,12.5z"/>
</svg>
