<?xml version="1.0" encoding="utf-8"?>
<!-- Generator: Adobe Illustrator 19.2.0, SVG Export Plug-In . SVG Version: 6.00 Build 0)  -->
<svg version="1.1" id="Layer_1" xmlns="http://www.w3.org/2000/svg" xmlns:xlink="http://www.w3.org/1999/xlink" x="0px" y="0px"
	 viewBox="0 0 18 18" style="enable-background:new 0 0 18 18;" xml:space="preserve">
<style type="text/css">
	.st0{fill:#4C4C4D;}
	.st1{fill:#939393;}
</style>
<path d="M10.7,17.6c-0.3,0-0.3-5.3,1.4-7.6l6-9.7l0,5.7c0,0.1,0,0.2-0.1,0.3L10.7,17.6z"/>
<path class="st0" d="M2,10.8L9.5,0.1C9.5,0.1,9.6,0,9.7,0l8.1,0c0.2,0,0.4,0.3,0.3,0.5l-6.8,10.8L2,10.8z"/>
<path class="st1" d="M9.9,18c-1.7,0-6.2,0-7.6,0c-0.5,0-0.9-0.3-1-0.8C1.1,15.8,1,12.9,2,10.8c0.1-0.3,0.5-0.5,0.8-0.5l8.5,0
	c0.4,0,0.4,0.4,0.3,0.8c-0.6,1.6-0.7,4.3-0.7,5.9C10.9,17.5,10.4,18,9.9,18z"/>
</svg>
