<?xml version="1.0" encoding="utf-8"?>
<!-- Generator: Adobe Illustrator 19.2.0, SVG Export Plug-In . SVG Version: 6.00 Build 0)  -->
<svg version="1.1" id="Layer_1" xmlns="http://www.w3.org/2000/svg" xmlns:xlink="http://www.w3.org/1999/xlink" x="0px" y="0px"
	 viewBox="0 0 18 18" style="enable-background:new 0 0 18 18;" xml:space="preserve">
<style type="text/css">
	.st0{fill:none;stroke:#000000;stroke-linejoin:round;stroke-miterlimit:10;}
	.st1{fill:none;stroke:#4C4C4D;stroke-linejoin:round;stroke-miterlimit:10;}
	.st2{fill:#4C4C4D;}
</style>
<polygon class="st0" points="10.4,14.3 17.6,17.3 17.6,0.8 10.4,0.8 "/>
<g>
	<path d="M11.3,11.5v1.9l5.2,2.2v-2.3c0,0-0.5-2.4-1.9-3.3c-0.2,0.5-0.4,0.8-0.7,0.8c-0.3,0-0.6-0.4-0.8-1.2c-0.1,0-0.2,0-0.3,0.1
		C11.3,10.3,11.3,11.5,11.3,11.5z"/>
	<path d="M12.6,6.3c0.1,0.9,0.2,0.5,0.2,0.7c0,0.6,0.1,1.2,0.3,1.7c0.2,0.7,0.5,1.2,0.8,1.2c0.3,0,0.5-0.3,0.7-0.8
		C14.8,8.5,15,7.8,15,7c0-0.2,0.1,0.2,0.2-0.7c0.1-1-0.2-0.5-0.2-0.7c0.1-1.7-0.3-3.5-1.1-3.5c-0.9,0-1.2,1.7-1.1,3.5
		C12.8,5.8,12.6,5.3,12.6,6.3z"/>
</g>
<polygon class="st1" points="7.6,14.3 0.4,17.3 0.4,0.8 7.6,0.8 "/>
<path class="st2" d="M6.7,11.5v1.9l-5.2,2.2v-2.3c0,0,0.5-2.4,1.9-3.3c0.2,0.5,0.4,0.8,0.7,0.8c0.3,0,0.6-0.4,0.8-1.2
	c0.1,0,0.2,0,0.3,0.1C6.7,10.3,6.7,11.5,6.7,11.5z"/>
<path class="st2" d="M5.4,6.3C5.3,7.2,5.2,6.8,5.2,7c0,0.6-0.1,1.2-0.3,1.7C4.7,9.4,4.4,9.8,4.1,9.8C3.8,9.8,3.6,9.5,3.4,9
	C3.2,8.5,3,7.8,3,7c0-0.2-0.1,0.2-0.2-0.7C2.7,5.3,3,5.8,3,5.6C2.9,3.9,3.3,2.1,4.1,2.1c0.9,0,1.2,1.7,1.1,3.5
	C5.2,5.8,5.4,5.3,5.4,6.3z"/>
<g>
	<circle cx="9" cy="1.1" r="0.4"/>
	<circle cx="9" cy="3.7" r="0.4"/>
	<circle cx="9" cy="6.2" r="0.4"/>
	<circle cx="9" cy="8.8" r="0.4"/>
	<circle cx="9" cy="11.2" r="0.4"/>
	<circle cx="9" cy="13.9" r="0.4"/>
	<circle cx="9" cy="16.5" r="0.4"/>
</g>
</svg>
