<?xml version="1.0" encoding="utf-8"?>
<!-- Generator: Adobe Illustrator 19.2.0, SVG Export Plug-In . SVG Version: 6.00 Build 0)  -->
<svg version="1.1" id="Layer_1" xmlns="http://www.w3.org/2000/svg" xmlns:xlink="http://www.w3.org/1999/xlink" x="0px" y="0px"
	 viewBox="0 0 18 18" style="enable-background:new 0 0 18 18;" xml:space="preserve">
<style type="text/css">
	.st0{stroke:#000000;stroke-miterlimit:10;}
</style>
<path class="st0" d="M11.6,10.9c1-1.1,1.6-2.5,1.6-4.1c0-3.4-2.8-6.2-6.3-6.2c-3.5,0-6.4,2.8-6.4,6.2c0,3.4,2.9,6.2,6.4,6.2
	c1.2,0,2.3-0.3,3.2-0.9l5.9,5.4c0.5,0.1,1.5-0.8,1.5-1.3L11.6,10.9z M10,11c-0.9,0.6-2,1-3.1,1c-3,0-5.4-2.4-5.4-5.3
	c0-2.9,2.4-5.3,5.4-5.3c3,0,5.4,2.4,5.4,5.3C12.3,8.5,11.4,10.1,10,11z"/>
</svg>
