<?xml version="1.0" encoding="utf-8"?>
<!-- Generator: Adobe Illustrator 19.2.0, SVG Export Plug-In . SVG Version: 6.00 Build 0)  -->
<svg version="1.1" id="Layer_1" xmlns="http://www.w3.org/2000/svg" xmlns:xlink="http://www.w3.org/1999/xlink" x="0px" y="0px"
	 viewBox="0 0 18 18" style="enable-background:new 0 0 18 18;" xml:space="preserve">
<style type="text/css">
	.st0{fill:none;stroke:#000000;stroke-linecap:round;stroke-miterlimit:10;}
	.st1{stroke:#000000;stroke-width:0.5;stroke-linecap:round;stroke-linejoin:round;stroke-miterlimit:10;}
	.st2{fill:none;stroke:#939393;stroke-linecap:round;stroke-miterlimit:10;}
	.st3{stroke:#000000;stroke-width:0.75;stroke-linejoin:round;stroke-miterlimit:10;stroke-dasharray:1,1;}
</style>
<path class="st0" d="M0.6,14C0.2,12.4,1,10.9,2,9.6C2.2,9.3,2.5,9,2.7,8.7c1-1.3,1.9-2.7,2.7-4.2"/>
<polygon class="st1" points="9.5,11.1 9.6,8.9 5.7,8.9 5.7,7.6 9.5,7.6 9.5,5.4 13.3,8.3 "/>
<path class="st2" d="M12.8,14.1c-0.4-1.6,0.4-3.2,1.4-4.5c0.2-0.3,0.5-0.6,0.7-0.9c1-1.3,1.9-2.8,2.6-4.3"/>
<line class="st3" x1="8.2" y1="1.5" x2="7.9" y2="16.6"/>
</svg>
