<?xml version="1.0" encoding="utf-8"?>
<!-- Generator: Adobe Illustrator 19.2.0, SVG Export Plug-In . SVG Version: 6.00 Build 0)  -->
<svg version="1.1" id="Layer_1" xmlns="http://www.w3.org/2000/svg" xmlns:xlink="http://www.w3.org/1999/xlink" x="0px" y="0px"
	 viewBox="0 0 18 18" style="enable-background:new 0 0 18 18;" xml:space="preserve">
<style type="text/css">
	.st0{fill:#4C4C4D;}
</style>
<path d="M0,2.2l0,12.3c0,0.3,0.3,0.4,0.5,0.2l6.2-6.1c0.1-0.1,0.1-0.3,0-0.4L0.5,2C0.3,1.8,0,1.9,0,2.2z"/>
<path d="M9.6,1.9v13c0,0.2-0.2,0.4-0.4,0.4H8.7c-0.2,0-0.4-0.2-0.4-0.4v-13c0-0.2,0.2-0.4,0.4-0.4h0.5C9.5,1.5,9.6,1.7,9.6,1.9z"/>
<path class="st0" d="M18,14.5V2.2c0-0.3-0.3-0.4-0.5-0.2l-6.2,6.1c-0.1,0.1-0.1,0.3,0,0.4l6.2,6.1C17.7,14.9,18,14.7,18,14.5z"/>
</svg>
