<?xml version="1.0" encoding="utf-8"?>
<!-- Generator: Adobe Illustrator 19.2.0, SVG Export Plug-In . SVG Version: 6.00 Build 0)  -->
<svg version="1.1" id="Layer_1" xmlns="http://www.w3.org/2000/svg" xmlns:xlink="http://www.w3.org/1999/xlink" x="0px" y="0px"
	 viewBox="0 0 18 18" style="enable-background:new 0 0 18 18;" xml:space="preserve">
<style type="text/css">
	.st0{stroke:#000000;stroke-width:0.25;stroke-miterlimit:10;}
</style>
<path class="st0" d="M9.8,17.9c2.6,0,4.2-0.6,4.5-2.5c0.7-4.1,0.9-10.8,1-11.7c0-0.9-1.3-0.9-1.4-0.1c-0.1,1.5-0.3,3.1-0.4,4.5
	c0,0.5-0.9,0.5-0.9-0.1c0-2.2,0.3-5,0.3-6.5c0-1.1-1.7-1.1-1.7-0.1c0,1.9-0.2,5.5-0.2,5.9C11,8,10,8,10,7.3c0-1,0.1-5.5,0-6.6
	c0-1.1-1.8-1-1.8,0.1c0,2.2,0,6.5,0,6.8c0,0.5-0.8,0.7-0.8,0c-0.1-2-0.1-4.8-0.2-5.7C7.1,0.8,5.6,1.1,5.5,2.1
	c-0.1,1.7,0.3,8.3-0.1,8.7c-0.6,0.6-1.7-2.6-2.3-3.1c-0.5-0.4-1.7,0.2-1.3,1c1,2.1,1.8,4.1,2.5,5.3C5.3,15.9,6,17.9,9.8,17.9z"/>
</svg>
