<?xml version="1.0" encoding="utf-8"?>
<!-- Generator: Adobe Illustrator 19.2.0, SVG Export Plug-In . SVG Version: 6.00 Build 0)  -->
<svg version="1.1" id="Layer_1" xmlns="http://www.w3.org/2000/svg" xmlns:xlink="http://www.w3.org/1999/xlink" x="0px" y="0px"
	 viewBox="0 0 18 18" style="enable-background:new 0 0 18 18;" xml:space="preserve">
<style type="text/css">
	.st0{stroke:#000000;stroke-width:0.5;stroke-miterlimit:10;}
</style>
<path d="M15.7,0.3v8.3c-0.8-0.4-1.8-0.7-2.8-0.7c-3.3,0-6.1,2.7-6.1,6.1c0,1.6,0.6,3,1.6,4.1H1.7c-0.1,0-0.3-0.1-0.3-0.3V0.3
	C1.4,0.1,1.5,0,1.7,0h13.7C15.6,0,15.7,0.1,15.7,0.3z"/>
<g>
	<rect x="11.9" y="10.3" class="st0" width="1.8" height="7.6"/>
	
		<rect x="11.9" y="10.3" transform="matrix(4.777873e-011 -1 1 4.777873e-011 -1.3185 26.8784)" class="st0" width="1.8" height="7.6"/>
</g>
</svg>
