<?xml version="1.0" encoding="utf-8"?>
<!-- Generator: Adobe Illustrator 19.2.0, SVG Export Plug-In . SVG Version: 6.00 Build 0)  -->
<svg version="1.1" id="Layer_1" xmlns="http://www.w3.org/2000/svg" xmlns:xlink="http://www.w3.org/1999/xlink" x="0px" y="0px"
	 viewBox="0 0 18 18" style="enable-background:new 0 0 18 18;" xml:space="preserve">
<style type="text/css">
	.st0{stroke:#000000;stroke-width:2;stroke-miterlimit:10;}
</style>
<path class="st0" d="M11.4,10.8c0.9-1,1.5-2.4,1.5-3.9C12.9,3.6,10.3,1,7,1C3.8,1,1.2,3.6,1.2,6.9c0,3.2,2.6,5.9,5.9,5.9
	c1.1,0,2.1-0.3,3-0.8l5.5,5.1c0.5,0.1,1.4-0.8,1.4-1.2L11.4,10.8z M9.9,10.9c-0.8,0.6-1.8,0.9-2.9,0.9c-2.7,0-5-2.2-5-5
	c0-2.7,2.2-5,5-5c2.7,0,5,2.2,5,5C12,8.5,11.2,10,9.9,10.9z"/>
</svg>
