<?xml version="1.0" encoding="utf-8"?>
<!-- Generator: Adobe Illustrator 19.2.0, SVG Export Plug-In . SVG Version: 6.00 Build 0)  -->
<svg version="1.1" id="Layer_1" xmlns="http://www.w3.org/2000/svg" xmlns:xlink="http://www.w3.org/1999/xlink" x="0px" y="0px"
	 viewBox="0 0 18 18" style="enable-background:new 0 0 18 18;" xml:space="preserve">
<polygon points="8.5,11.4 7,10 12.4,4.6 10.2,2.4 17.8,0.6 16.1,8.2 13.9,6.1 "/>
<path d="M16.5,9.7v7.5c0,0.2-0.1,0.3-0.3,0.3H0.5c-0.2,0-0.3-0.1-0.3-0.3V1.7c0-0.2,0.1-0.3,0.3-0.3h8.7c0.2,0,0.3,0.1,0.3,0.3
	l0,2.6c0,0.2-0.1,0.3-0.3,0.3H4c-0.2,0-0.3,0.1-0.3,0.3v9c0,0.2,0.1,0.3,0.3,0.3h9c0.2,0,0.3-0.1,0.3-0.3V9.6c0-0.2,0.1-0.3,0.3-0.3
	l2.6,0C16.4,9.4,16.5,9.5,16.5,9.7z"/>
</svg>
