<?xml version="1.0" encoding="utf-8"?>
<!-- Generator: Adobe Illustrator 19.2.0, SVG Export Plug-In . SVG Version: 6.00 Build 0)  -->
<svg version="1.1" id="Layer_1" xmlns="http://www.w3.org/2000/svg" xmlns:xlink="http://www.w3.org/1999/xlink" x="0px" y="0px"
	 viewBox="0 0 18 18" style="enable-background:new 0 0 18 18;" xml:space="preserve">
<path d="M18,9.3c0,4.3-3.4,7.9-7.8,8c-4,0-7.3-2.9-7.9-6.7l-2.4,0l3.7-5.4l4,5.4l-2.4,0c0.5,2.3,2.5,3.9,4.9,3.9c2.8,0,5-2.3,5-5.1
	c0-2.7-2.3-5-5.1-4.9C9.2,4.4,8.4,4.6,7.7,5l0-0.1L7.4,4.6L6.6,3.5l0-0.1L6.5,3.4L6,2.7c1.2-0.7,2.6-1.2,4-1.2C14.4,1.5,18,5,18,9.3
	z"/>
</svg>
