<?xml version="1.0" encoding="utf-8"?>
<!-- Generator: Adobe Illustrator 19.2.0, SVG Export Plug-In . SVG Version: 6.00 Build 0)  -->
<svg version="1.1" id="Layer_1" xmlns="http://www.w3.org/2000/svg" xmlns:xlink="http://www.w3.org/1999/xlink" x="0px" y="0px"
	 viewBox="0 0 18 18" style="enable-background:new 0 0 18 18;" xml:space="preserve">
<style type="text/css">
	.st0{fill:none;stroke:#939393;stroke-linejoin:round;stroke-miterlimit:10;}
	.st1{fill:#939393;}
	.st2{fill:none;stroke:#000000;stroke-linejoin:round;stroke-miterlimit:10;}
</style>
<polygon class="st0" points="12.2,7.2 12.1,12.1 17.5,13.3 17.6,3.4 5.8,0.9 5.8,5.8 "/>
<path class="st1" d="M14.4,7.4c0,1.8-1,3.2-2.3,3.5c-0.1,0,0.1,0,0,0l0-3.3L9,6.9c0-0.2,0,0.2,0,0c0.2-1.7,1.3-3,2.7-3
	C13.2,3.9,14.4,5.5,14.4,7.4z"/>
<polygon class="st2" points="0.4,14.5 12.1,17.1 12.2,7.2 0.4,4.7 "/>
<ellipse cx="6.4" cy="11.1" rx="2.9" ry="3.7"/>
</svg>
