<?xml version="1.0" encoding="utf-8"?>
<!-- Generator: Adobe Illustrator 19.2.0, SVG Export Plug-In . SVG Version: 6.00 Build 0)  -->
<svg version="1.1" id="Layer_1" xmlns="http://www.w3.org/2000/svg" xmlns:xlink="http://www.w3.org/1999/xlink" x="0px" y="0px"
	 viewBox="0 0 18 18" style="enable-background:new 0 0 18 18;" xml:space="preserve">
<style type="text/css">
	.st0{fill:#939393;}
	.st1{fill:none;stroke:#000000;stroke-linejoin:round;stroke-miterlimit:10;}
	.st2{fill:none;stroke:#000000;stroke-linecap:round;stroke-linejoin:round;stroke-miterlimit:10;}
	.st3{fill:#939393;stroke:#000000;stroke-linejoin:round;stroke-miterlimit:10;}
</style>
<polygon class="st0" points="9,10.5 0.5,13.5 0.5,3.1 9,0.5 "/>
<polygon class="st1" points="9.3,17.4 0.4,13.9 0.4,2.9 9,0.5 17.5,2.7 17.5,13.9 "/>
<polyline class="st2" points="0.5,3.1 9.3,6 17.6,2.9 "/>
<line class="st3" x1="9.3" y1="6" x2="9.3" y2="17.5"/>
<g>
	<ellipse transform="matrix(0.9367 -0.3501 0.3501 0.9367 -3.2458 3.4865)" cx="8" cy="10.7" rx="0.5" ry="0.5"/>
	<g>
		<ellipse transform="matrix(0.9367 -0.3501 0.3501 0.9367 -3.594 2.8638)" cx="6.1" cy="11.4" rx="0.5" ry="0.5"/>
		<ellipse transform="matrix(0.9367 -0.3501 0.3501 0.9367 -3.9711 2.2211)" cx="4.2" cy="12.1" rx="0.5" ry="0.5"/>
		<ellipse transform="matrix(0.9367 -0.3501 0.3501 0.9367 -4.3483 1.5784)" cx="2.2" cy="12.8" rx="0.5" ry="0.5"/>
	</g>
</g>
<g>
	<ellipse transform="matrix(0.3425 -0.9395 0.9395 0.3425 -1.5475 23.4142)" cx="16" cy="12.8" rx="0.5" ry="0.5"/>
	<g>
		<ellipse transform="matrix(0.3425 -0.9395 0.9395 0.3425 -2.1076 21.1842)" cx="14.1" cy="12.1" rx="0.5" ry="0.5"/>
		<ellipse transform="matrix(0.3425 -0.9395 0.9395 0.3425 -2.741 18.8674)" cx="12.1" cy="11.4" rx="0.5" ry="0.5"/>
		<ellipse transform="matrix(0.3425 -0.9395 0.9395 0.3425 -3.3745 16.5506)" cx="10.1" cy="10.7" rx="0.5" ry="0.5"/>
	</g>
</g>
<g>
	<ellipse transform="matrix(1 -3.781734e-003 3.781734e-003 1 -3.117955e-002 3.400211e-002)" cx="9" cy="8.3" rx="0.5" ry="0.5"/>
	<g>
		<ellipse transform="matrix(1 -3.781734e-003 3.781734e-003 1 -2.365777e-002 3.411802e-002)" cx="9" cy="6.3" rx="0.5" ry="0.5"/>
		<ellipse transform="matrix(1 -3.781734e-003 3.781734e-003 1 -1.580054e-002 3.407290e-002)" cx="9" cy="4.2" rx="0.5" ry="0.5"/>
		<ellipse transform="matrix(1 -3.781734e-003 3.781734e-003 1 -7.943312e-003 3.402779e-002)" cx="9" cy="2.1" rx="0.5" ry="0.5"/>
	</g>
</g>
</svg>
