<?xml version="1.0" encoding="utf-8"?>
<!-- Generator: Adobe Illustrator 19.2.0, SVG Export Plug-In . SVG Version: 6.00 Build 0)  -->
<svg version="1.1" id="Layer_1" xmlns="http://www.w3.org/2000/svg" xmlns:xlink="http://www.w3.org/1999/xlink" x="0px" y="0px"
	 viewBox="0 0 18 18" style="enable-background:new 0 0 18 18;" xml:space="preserve">
<style type="text/css">
	.st0{fill:#939393;}
	.st1{fill:none;stroke:#000000;stroke-linejoin:round;stroke-miterlimit:10;}
	.st2{fill:none;stroke:#000000;stroke-linecap:round;stroke-linejoin:round;stroke-miterlimit:10;}
	.st3{fill:#939393;stroke:#000000;stroke-linejoin:round;stroke-miterlimit:10;}
</style>
<polygon class="st0" points="18,13.8 9.7,17.3 0.2,13.6 9.3,10.4 "/>
<polygon class="st1" points="9.3,17.6 0.4,14 0.4,2.9 9,0.5 17.6,2.7 17.6,14 "/>
<polyline class="st2" points="0.4,3.1 9.3,6 17.6,2.9 "/>
<line class="st3" x1="9.3" y1="6" x2="9.3" y2="17.6"/>
<g>
	<ellipse transform="matrix(0.9372 -0.3489 0.3489 0.9372 -3.255 3.4792)" cx="8" cy="10.8" rx="0.5" ry="0.5"/>
	<g>
		<ellipse transform="matrix(0.9372 -0.3489 0.3489 0.9372 -3.6037 2.8564)" cx="6.1" cy="11.4" rx="0.5" ry="0.5"/>
		<ellipse transform="matrix(0.9372 -0.3489 0.3489 0.9372 -3.9814 2.2137)" cx="4.2" cy="12.2" rx="0.5" ry="0.5"/>
		<ellipse transform="matrix(0.9372 -0.3489 0.3489 0.9372 -4.3591 1.571)" cx="2.2" cy="12.9" rx="0.5" ry="0.5"/>
	</g>
</g>
<g>
	<ellipse transform="matrix(0.3412 -0.94 0.94 0.3412 -1.5747 23.5231)" cx="16" cy="12.9" rx="0.5" ry="0.5"/>
	<g>
		<ellipse transform="matrix(0.3412 -0.94 0.94 0.3412 -2.1361 21.2813)" cx="14.1" cy="12.2" rx="0.5" ry="0.5"/>
		<ellipse transform="matrix(0.3412 -0.94 0.94 0.3412 -2.7712 18.9524)" cx="12.1" cy="11.5" rx="0.5" ry="0.5"/>
		<ellipse transform="matrix(0.3412 -0.94 0.94 0.3412 -3.4063 16.6235)" cx="10.2" cy="10.7" rx="0.5" ry="0.5"/>
	</g>
</g>
<g>
	<ellipse transform="matrix(1 -3.797211e-003 3.797211e-003 1 -3.144767e-002 3.420023e-002)" cx="9" cy="8.3" rx="0.5" ry="0.5"/>
	<g>
		<ellipse transform="matrix(1 -3.797211e-003 3.797211e-003 1 -2.383665e-002 3.431692e-002)" cx="9" cy="6.3" rx="0.5" ry="0.5"/>
		<ellipse transform="matrix(1 -3.797211e-003 3.797211e-003 1 -1.588619e-002 3.427133e-002)" cx="9" cy="4.2" rx="0.5" ry="0.5"/>
		<ellipse transform="matrix(1 -3.797211e-003 3.797211e-003 1 -7.935733e-003 3.422574e-002)" cx="9" cy="2.1" rx="0.5" ry="0.5"/>
	</g>
</g>
</svg>
