<?xml version="1.0" encoding="utf-8"?>
<!-- Generator: Adobe Illustrator 19.2.0, SVG Export Plug-In . SVG Version: 6.00 Build 0)  -->
<svg version="1.1" id="Layer_1" xmlns="http://www.w3.org/2000/svg" xmlns:xlink="http://www.w3.org/1999/xlink" x="0px" y="0px"
	 viewBox="0 0 18 18" style="enable-background:new 0 0 18 18;" xml:space="preserve">
<style type="text/css">
	.st0{fill:#4C4C4D;}
	.st1{fill:none;stroke:#000000;stroke-width:2;stroke-linejoin:round;stroke-miterlimit:10;}
	.st2{fill:none;stroke:#000000;stroke-width:2;stroke-linecap:round;stroke-linejoin:round;stroke-miterlimit:10;}
	.st3{fill:#939393;stroke:#000000;stroke-width:2;stroke-linejoin:round;stroke-miterlimit:10;}
</style>
<polygon class="st0" points="9.1,10.4 1.1,13.3 1.1,3.5 9.1,1 "/>
<polygon class="st1" points="9.3,16.9 1.1,13.6 1.1,3.3 9.1,1 17,3.1 17,13.6 "/>
<polyline class="st2" points="1.1,3.5 9.3,6.2 17,3.3 "/>
<line class="st3" x1="9.3" y1="6.2" x2="9.3" y2="17"/>
<g>
	<ellipse transform="matrix(0.9377 -0.3473 0.3473 0.9377 -3.1815 3.488)" cx="8.1" cy="10.6" rx="0.5" ry="0.5"/>
	<g>
		<ellipse transform="matrix(0.9377 -0.3473 0.3473 0.9377 -3.5045 2.9121)" cx="6.4" cy="11.2" rx="0.5" ry="0.5"/>
		<ellipse transform="matrix(0.9377 -0.3473 0.3473 0.9377 -3.8544 2.3177)" cx="4.5" cy="11.9" rx="0.5" ry="0.5"/>
		<ellipse transform="matrix(0.9377 -0.3473 0.3473 0.9377 -4.2043 1.7234)" cx="2.7" cy="12.6" rx="0.5" ry="0.5"/>
	</g>
</g>
<g>
	<ellipse transform="matrix(0.3397 -0.9405 0.9405 0.3397 -1.581 22.9209)" cx="15.5" cy="12.6" rx="0.5" ry="0.5"/>
	<g>
		<ellipse transform="matrix(0.3397 -0.9405 0.9405 0.3397 -2.1015 20.8346)" cx="13.8" cy="11.9" rx="0.5" ry="0.5"/>
		<ellipse transform="matrix(0.3397 -0.9405 0.9405 0.3397 -2.6907 18.6673)" cx="12" cy="11.3" rx="0.5" ry="0.5"/>
		<ellipse transform="matrix(0.3397 -0.9405 0.9405 0.3397 -3.2799 16.5)" cx="10.1" cy="10.6" rx="0.5" ry="0.5"/>
	</g>
</g>
<g>
	<ellipse transform="matrix(1 -3.816151e-003 3.816151e-003 1 -3.162948e-002 3.451691e-002)" cx="9" cy="8.3" rx="0.5" ry="0.5"/>
	<g>
		
			<ellipse transform="matrix(1 -3.816151e-003 3.816151e-003 1 -2.448959e-002 3.462570e-002)" cx="9.1" cy="6.4" rx="0.5" ry="0.5"/>
		
			<ellipse transform="matrix(1 -3.816151e-003 3.816151e-003 1 -1.703128e-002 3.458300e-002)" cx="9.1" cy="4.5" rx="0.5" ry="0.5"/>
		<ellipse transform="matrix(1 -3.816151e-003 3.816151e-003 1 -9.572969e-003 3.454031e-002)" cx="9" cy="2.5" rx="0.5" ry="0.5"/>
	</g>
</g>
</svg>
