<?xml version="1.0" encoding="utf-8"?>
<!-- Generator: Adobe Illustrator 19.2.0, SVG Export Plug-In . SVG Version: 6.00 Build 0)  -->
<svg version="1.1" id="Layer_1" xmlns="http://www.w3.org/2000/svg" xmlns:xlink="http://www.w3.org/1999/xlink" x="0px" y="0px"
	 viewBox="0 0 18 18" style="enable-background:new 0 0 18 18;" xml:space="preserve">
<path d="M15.7,18h-4.5c-0.3,0-0.6-0.3-0.6-0.6l0-5.9c0-0.3-0.6-0.6-0.9-0.6H8.7H7.8c-0.3,0-0.9,0.3-0.9,0.6l0,5.9
	c0,0.3-0.3,0.6-0.6,0.6H1.8c-0.3,0-0.6-0.3-0.6-0.6V6c0-0.2,0.1-0.4,0.2-0.5l6.9-5.3C8.6,0,8.9,0,9.1,0.1L16,5.5
	c0.2,0.1,0.2,0.3,0.2,0.9v11.4C16.3,17.7,16,18,15.7,18z"/>
</svg>
