<?xml version="1.0" encoding="utf-8"?>
<!-- Generator: Adobe Illustrator 19.2.0, SVG Export Plug-In . SVG Version: 6.00 Build 0)  -->
<svg version="1.1" id="Layer_1" xmlns="http://www.w3.org/2000/svg" xmlns:xlink="http://www.w3.org/1999/xlink" x="0px" y="0px"
	 viewBox="0 0 18 18" style="enable-background:new 0 0 18 18;" xml:space="preserve">
<style type="text/css">
	.st0{fill:#FFFFFF;}
</style>
<path d="M0.6,18h16.9c0.3,0,0.6-0.2,0.6-0.6V7.6C18,7.3,17.8,7,17.4,7H12l0-1.7c0-0.3-0.2-0.5-0.5-0.5H9H6.6C6.3,4.7,6,5,6,5.3
	l0,1.7H0.6C0.3,7,0,7.3,0,7.6v9.9C0,17.8,0.3,18,0.6,18z"/>
<circle class="st0" cx="9" cy="12.5" r="4.5"/>
<polygon points="8.1,8.4 6.5,10 9,12.5 6.5,14.9 8.1,16.6 12.2,12.5 "/>
</svg>
