<?xml version="1.0" encoding="utf-8"?>
<!-- Generator: Adobe Illustrator 19.2.0, SVG Export Plug-In . SVG Version: 6.00 Build 0)  -->
<svg version="1.1" id="Layer_1" xmlns="http://www.w3.org/2000/svg" xmlns:xlink="http://www.w3.org/1999/xlink" x="0px" y="0px"
	 viewBox="0 0 18 18" style="enable-background:new 0 0 18 18;" xml:space="preserve">
<style type="text/css">
	.st0{fill:none;stroke:#000000;stroke-width:2;stroke-linejoin:round;stroke-miterlimit:10;}
	.st1{fill:none;stroke:#000000;stroke-width:2;stroke-linecap:round;stroke-linejoin:round;stroke-miterlimit:10;}
	.st2{fill:#939393;stroke:#000000;stroke-width:2;stroke-linejoin:round;stroke-miterlimit:10;}
</style>
<polygon class="st0" points="9.3,17 1,13.6 1,3.3 9,1 17,3.1 17,13.6 "/>
<polyline class="st1" points="1.1,3.5 9.3,6.2 17,3.3 "/>
<line class="st2" x1="9.3" y1="6.2" x2="9.3" y2="17.1"/>
<g>
	<ellipse transform="matrix(0.9377 -0.3473 0.3473 0.9377 -3.1973 3.4847)" cx="8.1" cy="10.7" rx="0.5" ry="0.5"/>
	<g>
		<ellipse transform="matrix(0.9377 -0.3473 0.3473 0.9377 -3.5212 2.9071)" cx="6.3" cy="11.3" rx="0.5" ry="0.5"/>
		<ellipse transform="matrix(0.9377 -0.3473 0.3473 0.9377 -3.8721 2.311)" cx="4.5" cy="12" rx="0.5" ry="0.5"/>
		<ellipse transform="matrix(0.9377 -0.3473 0.3473 0.9377 -4.2231 1.715)" cx="2.7" cy="12.6" rx="0.5" ry="0.5"/>
	</g>
</g>
<g>
	<ellipse transform="matrix(0.3397 -0.9405 0.9405 0.3397 -1.6233 22.9565)" cx="15.5" cy="12.6" rx="0.5" ry="0.5"/>
	<g>
		<ellipse transform="matrix(0.3397 -0.9405 0.9405 0.3397 -2.1453 20.8642)" cx="13.8" cy="12" rx="0.5" ry="0.5"/>
		<ellipse transform="matrix(0.3397 -0.9405 0.9405 0.3397 -2.7362 18.6907)" cx="11.9" cy="11.3" rx="0.5" ry="0.5"/>
		<ellipse transform="matrix(0.3397 -0.9405 0.9405 0.3397 -3.3271 16.5171)" cx="10.1" cy="10.6" rx="0.5" ry="0.5"/>
	</g>
</g>
<g>
	<ellipse transform="matrix(1 -3.816151e-003 3.816151e-003 1 -3.176549e-002 3.446155e-002)" cx="9" cy="8.3" rx="0.5" ry="0.5"/>
	<g>
		<ellipse transform="matrix(1 -3.816151e-003 3.816151e-003 1 -2.460500e-002 3.457065e-002)" cx="9" cy="6.5" rx="0.5" ry="0.5"/>
		<ellipse transform="matrix(1 -3.816151e-003 3.816151e-003 1 -1.712516e-002 3.452783e-002)" cx="9" cy="4.5" rx="0.5" ry="0.5"/>
		<ellipse transform="matrix(1 -3.816151e-003 3.816151e-003 1 -9.645327e-003 3.448502e-002)" cx="9" cy="2.5" rx="0.5" ry="0.5"/>
	</g>
</g>
</svg>
