<?xml version="1.0" encoding="utf-8"?>
<!-- Generator: Adobe Illustrator 19.2.0, SVG Export Plug-In . SVG Version: 6.00 Build 0)  -->
<svg version="1.1" id="Layer_1" xmlns="http://www.w3.org/2000/svg" xmlns:xlink="http://www.w3.org/1999/xlink" x="0px" y="0px"
	 viewBox="0 0 18 18" style="enable-background:new 0 0 18 18;" xml:space="preserve">
<style type="text/css">
	.st0{fill:#4C4C4D;}
	.st1{fill:none;stroke:#000000;stroke-width:2;stroke-linejoin:round;stroke-miterlimit:10;}
	.st2{fill:none;stroke:#000000;stroke-width:2;stroke-linecap:round;stroke-linejoin:round;stroke-miterlimit:10;}
	.st3{fill:#939393;stroke:#000000;stroke-width:2;stroke-linejoin:round;stroke-miterlimit:10;}
</style>
<polygon class="st0" points="17,13.6 9.3,17 9.3,6.1 17,3.1 "/>
<polygon class="st1" points="9.3,17 1,13.6 1,3.2 9,0.9 17,3.1 17,13.6 "/>
<polyline class="st2" points="1,3.4 9.3,6.1 17,3.3 "/>
<line class="st3" x1="9.3" y1="6.1" x2="9.3" y2="17.1"/>
<g>
	<ellipse transform="matrix(0.9377 -0.3473 0.3473 0.9377 -3.1876 3.4735)" cx="8.1" cy="10.6" rx="0.5" ry="0.5"/>
	<g>
		<ellipse transform="matrix(0.9377 -0.3473 0.3473 0.9377 -3.5126 2.8941)" cx="6.3" cy="11.2" rx="0.5" ry="0.5"/>
		<ellipse transform="matrix(0.9377 -0.3473 0.3473 0.9377 -3.8646 2.2962)" cx="4.5" cy="11.9" rx="0.5" ry="0.5"/>
		<ellipse transform="matrix(0.9377 -0.3473 0.3473 0.9377 -4.2166 1.6983)" cx="2.6" cy="12.6" rx="0.5" ry="0.5"/>
	</g>
</g>
<g>
	<ellipse transform="matrix(0.3397 -0.9405 0.9405 0.3397 -1.6006 22.9361)" cx="15.5" cy="12.6" rx="0.5" ry="0.5"/>
	<g>
		<ellipse transform="matrix(0.3397 -0.9405 0.9405 0.3397 -2.1242 20.8373)" cx="13.8" cy="11.9" rx="0.5" ry="0.5"/>
		<ellipse transform="matrix(0.3397 -0.9405 0.9405 0.3397 -2.717 18.6569)" cx="11.9" cy="11.3" rx="0.5" ry="0.5"/>
		<ellipse transform="matrix(0.3397 -0.9405 0.9405 0.3397 -3.3098 16.4766)" cx="10.1" cy="10.6" rx="0.5" ry="0.5"/>
	</g>
</g>
<g>
	<ellipse transform="matrix(1 -3.816151e-003 3.816151e-003 1 -3.161380e-002 3.437135e-002)" cx="9" cy="8.3" rx="0.5" ry="0.5"/>
	<g>
		<ellipse transform="matrix(1 -3.816151e-003 3.816151e-003 1 -2.443091e-002 3.448080e-002)" cx="9" cy="6.4" rx="0.5" ry="0.5"/>
		<ellipse transform="matrix(1 -3.816151e-003 3.816151e-003 1 -1.692768e-002 3.443784e-002)" cx="9" cy="4.5" rx="0.5" ry="0.5"/>
		<ellipse transform="matrix(1 -3.816151e-003 3.816151e-003 1 -9.424446e-003 3.439489e-002)" cx="9" cy="2.5" rx="0.5" ry="0.5"/>
	</g>
</g>
</svg>
