<?xml version="1.0" encoding="utf-8"?>
<!-- Generator: Adobe Illustrator 19.2.0, SVG Export Plug-In . SVG Version: 6.00 Build 0)  -->
<svg version="1.1" id="Layer_1" xmlns="http://www.w3.org/2000/svg" xmlns:xlink="http://www.w3.org/1999/xlink" x="0px" y="0px"
	 viewBox="0 0 18 18" style="enable-background:new 0 0 18 18;" xml:space="preserve">
<style type="text/css">
	.st0{fill:#4C4C4D;}
	.st1{fill:none;stroke:#000000;stroke-width:2;stroke-linejoin:round;stroke-miterlimit:10;}
	.st2{fill:none;stroke:#000000;stroke-width:2;stroke-linecap:round;stroke-linejoin:round;stroke-miterlimit:10;}
	.st3{fill:#939393;stroke:#000000;stroke-width:2;stroke-linejoin:round;stroke-miterlimit:10;}
</style>
<polygon class="st0" points="17.4,13.5 9.7,16.8 1,13.1 9.3,10.3 "/>
<polygon class="st1" points="9.3,17 1,13.7 1,3.3 9,1 17,3.1 17,13.7 "/>
<polyline class="st2" points="1,3.5 9.3,6.2 17,3.3 "/>
<line class="st3" x1="9.3" y1="6.2" x2="9.3" y2="17.1"/>
<g>
	<ellipse transform="matrix(0.9377 -0.3473 0.3473 0.9377 -3.2064 3.4678)" cx="8.1" cy="10.7" rx="0.5" ry="0.5"/>
	<g>
		<ellipse transform="matrix(0.9377 -0.3473 0.3473 0.9377 -3.5311 2.8889)" cx="6.3" cy="11.3" rx="0.5" ry="0.5"/>
		<ellipse transform="matrix(0.9377 -0.3473 0.3473 0.9377 -3.8828 2.2915)" cx="4.5" cy="12" rx="0.5" ry="0.5"/>
		<ellipse transform="matrix(0.9377 -0.3473 0.3473 0.9377 -4.2346 1.6941)" cx="2.6" cy="12.7" rx="0.5" ry="0.5"/>
	</g>
</g>
<g>
	<ellipse transform="matrix(0.3397 -0.9405 0.9405 0.3397 -1.6664 22.9383)" cx="15.5" cy="12.7" rx="0.5" ry="0.5"/>
	<g>
		<ellipse transform="matrix(0.3397 -0.9405 0.9405 0.3397 -2.1896 20.8412)" cx="13.7" cy="12" rx="0.5" ry="0.5"/>
		<ellipse transform="matrix(0.3397 -0.9405 0.9405 0.3397 -2.7819 18.6627)" cx="11.9" cy="11.3" rx="0.5" ry="0.5"/>
		<ellipse transform="matrix(0.3397 -0.9405 0.9405 0.3397 -3.3742 16.4842)" cx="10.1" cy="10.6" rx="0.5" ry="0.5"/>
	</g>
</g>
<g>
	<ellipse transform="matrix(1 -3.816151e-003 3.816151e-003 1 -3.181082e-002 3.427285e-002)" cx="9" cy="8.4" rx="0.5" ry="0.5"/>
	<g>
		<ellipse transform="matrix(1 -3.816151e-003 3.816151e-003 1 -2.463392e-002 3.438221e-002)" cx="9" cy="6.5" rx="0.5" ry="0.5"/>
		<ellipse transform="matrix(1 -3.816151e-003 3.816151e-003 1 -1.713694e-002 3.433929e-002)" cx="9" cy="4.5" rx="0.5" ry="0.5"/>
		<ellipse transform="matrix(1 -3.816151e-003 3.816151e-003 1 -9.639964e-003 3.429638e-002)" cx="9" cy="2.5" rx="0.5" ry="0.5"/>
	</g>
</g>
</svg>
