<?xml version="1.0" encoding="utf-8"?>
<!-- Generator: Adobe Illustrator 19.2.0, SVG Export Plug-In . SVG Version: 6.00 Build 0)  -->
<svg version="1.1" id="Layer_1" xmlns="http://www.w3.org/2000/svg" xmlns:xlink="http://www.w3.org/1999/xlink" x="0px" y="0px"
	 viewBox="0 0 18 18" style="enable-background:new 0 0 18 18;" xml:space="preserve">
<style type="text/css">
	.st0{fill:#FFFFFF;}
</style>
<path d="M9.3,4v8.4c0,0.2,0.1,0.3,0.3,0.3h8.1c0.2,0,0.3-0.1,0.3-0.3V4c0-0.2-0.1-0.3-0.3-0.3H9.6C9.4,3.7,9.3,3.8,9.3,4z"/>
<path class="st0" d="M10.3,4.3v7.7h0c2,0,3.6-1.7,3.6-3.9c0-2-1.4-3.7-3.3-3.9H10.3z"/>
<path d="M8.7,4v8.4c0,0.2-0.1,0.3-0.3,0.3H0.3c-0.2,0-0.3-0.1-0.3-0.3L0,4c0-0.2,0.1-0.3,0.3-0.3h8.1C8.6,3.7,8.7,3.8,8.7,4z"/>
<path class="st0" d="M7.7,4.3v7.7h0c-2,0-3.6-1.7-3.6-3.9c0-2,1.4-3.7,3.3-3.9H7.7z"/>
<path d="M6.7,14.3H2.1c-0.2,0-0.3-0.1-0.3-0.3v-0.3c0-0.2,0.1-0.3,0.3-0.3h4.6c0.2,0,0.3,0.1,0.3,0.3V14C7,14.2,6.8,14.3,6.7,14.3z"
	/>
<path d="M15.9,14.3h-4.6c-0.2,0-0.3-0.1-0.3-0.3v-0.3c0-0.2,0.1-0.3,0.3-0.3h4.6c0.2,0,0.3,0.1,0.3,0.3V14
	C16.2,14.2,16.1,14.3,15.9,14.3z"/>
</svg>
