<?xml version="1.0" encoding="utf-8"?>
<!-- Generator: Adobe Illustrator 19.2.0, SVG Export Plug-In . SVG Version: 6.00 Build 0)  -->
<svg version="1.1" id="Layer_1" xmlns="http://www.w3.org/2000/svg" xmlns:xlink="http://www.w3.org/1999/xlink" x="0px" y="0px"
	 viewBox="0 0 18 18" style="enable-background:new 0 0 18 18;" xml:space="preserve">
<style type="text/css">
	.st0{fill:#FFFFFF;}
</style>
<path d="M17.4,16H0.6C0.3,16,0,15.7,0,15.4V5.5C0,5.2,0.3,5,0.6,5H6l0-1.7c0-0.3,0.2-0.5,0.5-0.5H9h2.4c0.3,0,0.6,0.2,0.6,0.6L12,5
	h5.5C17.7,5,18,5.2,18,5.5v9.9C18,15.7,17.7,16,17.4,16z"/>
<circle class="st0" cx="9" cy="10.4" r="4.5"/>
<polygon points="9.9,6.3 11.5,7.9 9,10.4 11.5,12.9 9.9,14.5 5.8,10.4 "/>
</svg>
