<?xml version="1.0" encoding="utf-8"?>
<!-- Generator: Adobe Illustrator 19.2.0, SVG Export Plug-In . SVG Version: 6.00 Build 0)  -->
<svg version="1.1" id="Layer_1" xmlns="http://www.w3.org/2000/svg" xmlns:xlink="http://www.w3.org/1999/xlink" x="0px" y="0px"
	 viewBox="0 0 18 18" style="enable-background:new 0 0 18 18;" xml:space="preserve">
<style type="text/css">
	.st0{fill:#FFFFFF;}
</style>
<path d="M17.4,18H0.6C0.3,18,0,17.8,0,17.4V7.6C0,7.3,0.3,7,0.6,7H6l0-1.7C6,5,6.3,4.7,6.6,4.7h2.5h2.4C11.8,4.7,12,5,12,5.3L12,7
	h5.5C17.8,7,18,7.3,18,7.6v9.9C18,17.8,17.8,18,17.4,18z"/>
<circle class="st0" cx="9" cy="12.5" r="4.5"/>
<polygon points="9.9,8.4 11.5,10 9.1,12.5 11.5,14.9 9.9,16.6 5.8,12.5 "/>
</svg>
