<?xml version="1.0" encoding="utf-8"?>
<!-- Generator: Adobe Illustrator 19.2.0, SVG Export Plug-In . SVG Version: 6.00 Build 0)  -->
<svg version="1.1" id="Layer_1" xmlns="http://www.w3.org/2000/svg" xmlns:xlink="http://www.w3.org/1999/xlink" x="0px" y="0px"
	 viewBox="0 0 18 18" style="enable-background:new 0 0 18 18;" xml:space="preserve">
<style type="text/css">
	.st0{fill:#FFFFFF;}
</style>
<path d="M9.3,4.4v8.4c0,0.2,0.1,0.3,0.3,0.3h8.1c0.2,0,0.3-0.1,0.3-0.3V4.4c0-0.2-0.1-0.3-0.3-0.3H9.6C9.4,4.1,9.3,4.2,9.3,4.4z"/>
<path d="M8.7,4.4v8.4c0,0.2-0.1,0.3-0.3,0.3H0.3C0.1,13.1,0,13,0,12.8l0-8.4c0-0.2,0.1-0.3,0.3-0.3h8.1C8.6,4.1,8.7,4.2,8.7,4.4z"/>
<circle class="st0" cx="4.4" cy="8.6" r="2.8"/>
<circle class="st0" cx="13.6" cy="8.6" r="1.2"/>
<path d="M6.7,14.7H2.1c-0.2,0-0.3-0.1-0.3-0.3v-0.3c0-0.2,0.1-0.3,0.3-0.3h4.6c0.2,0,0.3,0.1,0.3,0.3v0.3C7,14.5,6.8,14.7,6.7,14.7z
	"/>
<path d="M15.9,14.7h-4.6c-0.2,0-0.3-0.1-0.3-0.3v-0.3c0-0.2,0.1-0.3,0.3-0.3h4.6c0.2,0,0.3,0.1,0.3,0.3v0.3
	C16.2,14.5,16.1,14.7,15.9,14.7z"/>
</svg>
