<?xml version="1.0" encoding="utf-8"?>
<!-- Generator: Adobe Illustrator 19.2.0, SVG Export Plug-In . SVG Version: 6.00 Build 0)  -->
<svg version="1.1" id="Layer_1" xmlns="http://www.w3.org/2000/svg" xmlns:xlink="http://www.w3.org/1999/xlink" x="0px" y="0px"
	 viewBox="0 0 18 18" style="enable-background:new 0 0 18 18;" xml:space="preserve">
<path d="M16.2,18h-4.5c-0.3,0-0.6-0.3-0.6-0.6l0-5.9c0-0.3-0.6-0.6-0.9-0.6H9.3H8.4c-0.3,0-0.9,0.3-0.9,0.6l0,5.9
	c0,0.3-0.3,0.6-0.6,0.6H2.3c-0.3,0-0.6-0.3-0.6-0.6V6c0-0.2,0.1-0.4,0.2-0.5l6.9-5.3C9.1,0,9.4,0,9.7,0.1l6.9,5.3
	c0.2,0.1,0.2,0.3,0.2,0.9v11.4C16.8,17.7,16.6,18,16.2,18z"/>
</svg>
