<?xml version="1.0" encoding="UTF-8" standalone="no"?>
<svg
   xmlns:dc="http://purl.org/dc/elements/1.1/"
   xmlns:cc="http://creativecommons.org/ns#"
   xmlns:rdf="http://www.w3.org/1999/02/22-rdf-syntax-ns#"
   xmlns:svg="http://www.w3.org/2000/svg"
   xmlns="http://www.w3.org/2000/svg"
   xmlns:sodipodi="http://sodipodi.sourceforge.net/DTD/sodipodi-0.dtd"
   xmlns:inkscape="http://www.inkscape.org/namespaces/inkscape"
   width="24"
   height="24"
   viewBox="0 0 24 24"
   id="svg2"
   version="1.1"
   inkscape:version="0.91 r13725"
   sodipodi:docname="camera-aperture-24px.svg">
  <metadata
     id="metadata10">
    <rdf:RDF>
      <cc:Work
         rdf:about="">
        <dc:format>image/svg+xml</dc:format>
        <dc:type
           rdf:resource="http://purl.org/dc/dcmitype/StillImage" />
        <dc:title></dc:title>
      </cc:Work>
    </rdf:RDF>
  </metadata>
  <defs
     id="defs8" />
  <sodipodi:namedview
     pagecolor="#ffffff"
     bordercolor="#666666"
     borderopacity="1"
     objecttolerance="10"
     gridtolerance="10"
     guidetolerance="10"
     inkscape:pageopacity="0"
     inkscape:pageshadow="2"
     inkscape:window-width="1536"
     inkscape:window-height="801"
     id="namedview6"
     showgrid="false"
     inkscape:zoom="26.333333"
     inkscape:cx="12"
     inkscape:cy="12"
     inkscape:window-x="-8"
     inkscape:window-y="-8"
     inkscape:window-maximized="1"
     inkscape:current-layer="svg2" />
  <path
     d="m 11.964684,0.04531646 c -2.0700005,0 -4.0200005,0.57 -5.7300005,1.50000004 l 9.6600005,7.02 2.25,-6.75 c -1.8,-1.08000004 -3.93,-1.77000004 -6.18,-1.77000004 z M 3.7146835,3.4353165 c -2.28,2.19 -3.74999996,5.22 -3.74999996,8.6399995 0,0.75 0.06,1.44 0.18,2.16 l 9.26999996,-6.6599995 -5.73,-4.14 z m 16.8900005,0.39 -3.66,11.2499995 6.57,0 c 0.24,-0.96 0.48,-1.95 0.48,-3 0,-3.2099995 -1.32,-6.0899995 -3.39,-8.2499995 z m -14.1600005,9.6599995 -5.25,3.75 c 1.65,3.39 4.8,5.97 8.64,6.66 l -3.39,-10.41 z m 4.6800005,4.59 1.89,5.91 c 3.99,-0.36 7.38,-2.64 9.27,-5.91 l -11.16,0 z"
     id="path4"
     inkscape:connector-curvature="0" />
</svg>
