<?xml version="1.0" encoding="utf-8"?>
<!-- Generator: Adobe Illustrator 19.2.0, SVG Export Plug-In . SVG Version: 6.00 Build 0)  -->
<svg version="1.1" id="Layer_1" xmlns="http://www.w3.org/2000/svg" xmlns:xlink="http://www.w3.org/1999/xlink" x="0px" y="0px"
	 viewBox="0 0 18 18" style="enable-background:new 0 0 18 18;" xml:space="preserve">
<path d="M18,9.4l-2.2,8.2c-0.1,0.3-0.3,0.5-0.6,0.5H1.7c-0.4,0-0.7-0.4-0.6-0.8l2.2-8.2c0.1-0.3,0.3-0.5,0.6-0.5h13.5
	C17.8,8.6,18.1,9,18,9.4z"/>
<path d="M14.7,5.3H2.6C2.3,5.3,2.1,5.5,2,5.8L0,13V2.4c0-0.1,0-0.2,0.1-0.4C0.5,1.5,1.8,0,4.3,0C6.9,0,8,2.2,8,2.2h6.7
	c0.3,0,0.6,0.3,0.6,0.6l0,1.9C15.3,5.1,15.1,5.3,14.7,5.3z"/>
</svg>
