<?xml version="1.0" encoding="UTF-8" standalone="no"?>
<svg
   xmlns:dc="http://purl.org/dc/elements/1.1/"
   xmlns:cc="http://creativecommons.org/ns#"
   xmlns:rdf="http://www.w3.org/1999/02/22-rdf-syntax-ns#"
   xmlns:svg="http://www.w3.org/2000/svg"
   xmlns="http://www.w3.org/2000/svg"
   xmlns:sodipodi="http://sodipodi.sourceforge.net/DTD/sodipodi-0.dtd"
   xmlns:inkscape="http://www.inkscape.org/namespaces/inkscape"
   width="24"
   height="24"
   viewBox="0 0 24 24"
   id="svg2"
   version="1.1"
   inkscape:version="0.91 r13725"
   sodipodi:docname="file-export-24px.svg">
  <metadata
     id="metadata10">
    <rdf:RDF>
      <cc:Work
         rdf:about="">
        <dc:format>image/svg+xml</dc:format>
        <dc:type
           rdf:resource="http://purl.org/dc/dcmitype/StillImage" />
        <dc:title></dc:title>
      </cc:Work>
    </rdf:RDF>
  </metadata>
  <defs
     id="defs8" />
  <sodipodi:namedview
     pagecolor="#ffffff"
     bordercolor="#666666"
     borderopacity="1"
     objecttolerance="10"
     gridtolerance="10"
     guidetolerance="10"
     inkscape:pageopacity="0"
     inkscape:pageshadow="2"
     inkscape:window-width="1251"
     inkscape:window-height="768"
     id="namedview6"
     showgrid="false"
     inkscape:zoom="24.958333"
     inkscape:cx="12"
     inkscape:cy="12"
     inkscape:window-x="0"
     inkscape:window-y="0"
     inkscape:window-maximized="0"
     inkscape:current-layer="svg2" />
  <path
     d="m 2.3034224,0.02504174 c -1.23,0 -2.25000003,1.01999996 -2.25000003,2.24999996 l 0,16.5000003 c 0,1.23 1.02000003,2.25 2.25000003,2.25 l 13.5000006,0 c 1.23,0 2.25,-1.02 2.25,-2.25 l 0,-3.75 -3,0 0,3 -12.0000006,0 0,-15.0000003 6,0 0,-2.99999996 -6.75,0 z m 15.7500006,0 0,2.99999996 c -6.15,0 -11.1000006,4.62 -11.8200006,10.5900003 0.63,-2.64 2.97,-4.5900003 5.8200006,-4.5900003 l 6,0 0,3.0000003 6,-6.0000003 -6,-5.99999996 z"
     id="path4"
     inkscape:connector-curvature="0" />
</svg>
