<?xml version="1.0" encoding="UTF-8" standalone="no"?>
<!-- Generator: Adobe Illustrator 19.2.0, SVG Export Plug-In . SVG Version: 6.00 Build 0)  -->

<svg
   xmlns:dc="http://purl.org/dc/elements/1.1/"
   xmlns:cc="http://creativecommons.org/ns#"
   xmlns:rdf="http://www.w3.org/1999/02/22-rdf-syntax-ns#"
   xmlns:svg="http://www.w3.org/2000/svg"
   xmlns="http://www.w3.org/2000/svg"
   xmlns:sodipodi="http://sodipodi.sourceforge.net/DTD/sodipodi-0.dtd"
   xmlns:inkscape="http://www.inkscape.org/namespaces/inkscape"
   version="1.1"
   id="Layer_1"
   x="0px"
   y="0px"
   viewBox="0 0 18 18"
   style="enable-background:new 0 0 18 18;"
   xml:space="preserve"
   inkscape:version="0.91 r13725"
   sodipodi:docname="scene-newcanvas-ortho-24px - Copy.svg"><metadata
     id="metadata19"><rdf:RDF><cc:Work
         rdf:about=""><dc:format>image/svg+xml</dc:format><dc:type
           rdf:resource="http://purl.org/dc/dcmitype/StillImage" /></cc:Work></rdf:RDF></metadata><defs
     id="defs17" /><sodipodi:namedview
     pagecolor="#ffffff"
     bordercolor="#666666"
     borderopacity="1"
     objecttolerance="10"
     gridtolerance="10"
     guidetolerance="10"
     inkscape:pageopacity="0"
     inkscape:pageshadow="2"
     inkscape:window-width="845"
     inkscape:window-height="776"
     id="namedview15"
     showgrid="false"
     inkscape:zoom="13.111111"
     inkscape:cx="9"
     inkscape:cy="9"
     inkscape:window-x="0"
     inkscape:window-y="0"
     inkscape:window-maximized="0"
     inkscape:current-layer="Layer_1" /><style
     type="text/css"
     id="style3">
	.st0{fill:none;stroke:#000000;stroke-linejoin:round;stroke-miterlimit:10;}
	.st1{fill:none;stroke:#000000;stroke-linejoin:round;stroke-miterlimit:10;stroke-dasharray:1,1;}
	.st2{fill:#4C4C4D;stroke:#000000;stroke-linejoin:round;stroke-miterlimit:10;}
</style><polygon
     class="st0"
     points="0.5,4 17.5,0.5 17.5,13.7 0.5,17.5 "
     id="polygon5"
     transform="matrix(-7.4659451e-4,0.99999972,-0.99999972,-7.4659451e-4,17.95926,0.03538758)"
     style="fill:none;stroke:#000000;stroke-linejoin:round;stroke-miterlimit:10" /><polygon
     class="st0"
     points="14.9,3.3 3.1,0.1 3.1,13.4 14.9,17.2 "
     id="polygon7"
     transform="matrix(-7.4659451e-4,0.99999972,-0.99999972,-7.4659451e-4,17.95926,0.03538758)"
     style="fill:none;stroke:#000000;stroke-linejoin:round;stroke-miterlimit:10" /><line
     class="st1"
     x1="17.752392"
     y1="9.2352352"
     x2="0.052397449"
     y2="9.2220201"
     id="line9"
     style="fill:none;stroke:#000000;stroke-linejoin:round;stroke-miterlimit:10;stroke-dasharray:1, 1" /><line
     class="st2"
     x1="14.457394"
     y1="2.532774"
     x2="16.052094"
     y2="9.6339664"
     id="line11"
     style="fill:#4c4c4d;stroke:#000000;stroke-linejoin:round;stroke-miterlimit:10" /><line
     class="st2"
     x1="2.4531429"
     y1="8.2238131"
     x2="4.1478415"
     y2="15.32508"
     id="line13"
     style="fill:#4c4c4d;stroke:#000000;stroke-linejoin:round;stroke-miterlimit:10" /><path
     style="fill:#999999;stroke:#ffffff;stroke-width:0.07627118"
     d="m 1.525901,14.274153 c 0.017629,-0.05244 0.2174744,-0.672634 0.4441019,-1.378217 l 0.4120499,-1.282878 0.2864207,1.282878 c 0.1575313,0.705583 0.2874169,1.32578 0.2886345,1.378217 0.00162,0.06981 -0.1939999,0.09534 -0.7305224,0.09534 -0.552436,0 -0.7248496,-0.02346 -0.7006846,-0.09534 z"
     id="path3347"
     inkscape:connector-curvature="0" /><path
     style="fill:#999999;stroke:#ffffff;stroke-width:0.07627118"
     d="M 4.4489306,14.274153 C 4.3823776,14.069654 3.4169492,9.9562287 3.4169492,9.8771631 c 0,-0.046169 0.085805,-0.083943 0.1906779,-0.083943 0.18523,0 0.190678,-0.015254 0.190678,-0.5338983 l 0,-0.5338983 -0.2288136,0 c -0.1258474,0 -0.2280138,-0.025742 -0.2270364,-0.057203 9.774e-4,-0.031462 0.357802,-1.1555084 0.7929435,-2.4978813 L 4.9265649,3.729661 9.4936761,3.7100045 14.060787,3.690348 14.548299,6.0744113 c 0.268131,1.3112348 0.502906,2.4441268 0.521722,2.5175379 0.0261,0.1018281 -0.01311,0.1334745 -0.165363,0.1334745 -0.196243,0 -0.199573,0.00891 -0.199573,0.5338983 l 0,0.5338983 0.296816,0 c 0.251252,0 0.304005,0.02864 0.343643,0.1865701 0.03682,0.1467216 -0.644534,2.8625326 -1.067827,4.2562266 -0.03806,0.125305 -0.339145,0.133475 -4.9191488,0.133475 -3.8354924,0 -4.8852441,-0.02038 -4.9096376,-0.09534 z m 1.3324253,-5.014831 0,-0.5338983 -0.5338983,0 -0.5338983,0 0,0.5338983 0,0.5338983 0.5338983,0 0.5338983,0 0,-0.5338983 z m 1.9830509,0 0,-0.5338983 -0.5338983,0 -0.5338983,0 0,0.4830509 c 0,0.265678 0.022881,0.5059322 0.050847,0.5338983 0.027966,0.027966 0.2682202,0.050847 0.5338983,0.050847 l 0.4830508,0 0,-0.5338983 z m 2.043739,-0.019068 0.022553,-0.5148305 -0.5755188,0 -0.5755187,0 0,0.4830509 c 0,0.265678 0.024287,0.5073379 0.053971,0.5370221 0.029684,0.029684 0.278519,0.043985 0.5529661,0.03178 L 9.7855932,9.7550845 9.8081462,9.240254 Z m 1.9986342,0.019068 0,-0.5338983 -0.533899,0 -0.533898,0 0,0.5338983 0,0.5338983 0.533898,0 0.533899,0 0,-0.5338983 z m 1.983051,0 0,-0.5338983 -0.533899,0 -0.533898,0 0,0.5338983 0,0.5338983 0.533898,0 0.533899,0 0,-0.5338983 z"
     id="path3349"
     inkscape:connector-curvature="0" /><path
     style="fill:#999999;stroke:#ffffff;stroke-width:0.07627118"
     d=""
     id="path3351"
     inkscape:connector-curvature="0" /><path
     style="fill:#999999;stroke:#ffffff;stroke-width:0.07627118"
     d="m 15.692397,5.5885224 -0.42264,-1.896997 0.938003,0 c 0.515901,0 0.937334,0.00858 0.936517,0.019068 -8.17e-4,0.010487 -0.23273,0.8641359 -0.515362,1.896997 l -0.513878,1.8779292 -0.42264,-1.896997 z"
     id="path3353"
     inkscape:connector-curvature="0" /></svg>