<?xml version="1.0" encoding="utf-8"?>
<!-- Generator: Adobe Illustrator 19.2.0, SVG Export Plug-In . SVG Version: 6.00 Build 0)  -->
<svg version="1.1" id="Layer_1" xmlns="http://www.w3.org/2000/svg" xmlns:xlink="http://www.w3.org/1999/xlink" x="0px" y="0px"
	 viewBox="0 0 18 18" style="enable-background:new 0 0 18 18;" xml:space="preserve">
<style type="text/css">
	.st0{fill:#939393;}
</style>
<path d="M0,2.9l0,12.3c0,0.3,0.3,0.4,0.5,0.2l6.2-6.1c0.1-0.1,0.1-0.3,0-0.4L0.5,2.6C0.3,2.5,0,2.6,0,2.9z"/>
<path d="M9.6,2.5v13c0,0.2-0.2,0.4-0.4,0.4H8.7c-0.2,0-0.4-0.2-0.4-0.4v-13c0-0.2,0.2-0.4,0.4-0.4h0.5C9.5,2.1,9.6,2.3,9.6,2.5z"/>
<path class="st0" d="M18,15.1V2.9c0-0.3-0.3-0.4-0.5-0.2l-6.2,6.1c-0.1,0.1-0.1,0.3,0,0.4l6.2,6.1C17.7,15.5,18,15.4,18,15.1z"/>
</svg>
