<?xml version="1.0" encoding="utf-8"?>
<!-- Generator: Adobe Illustrator 19.2.0, SVG Export Plug-In . SVG Version: 6.00 Build 0)  -->
<svg version="1.1" id="Layer_1" xmlns="http://www.w3.org/2000/svg" xmlns:xlink="http://www.w3.org/1999/xlink" x="0px" y="0px"
	 viewBox="0 0 18 18" style="enable-background:new 0 0 18 18;" xml:space="preserve">
<path d="M5.2,5.7C4.3,5.6,2.3,5.6,0.8,6.5c-1.3,0.8-1,2.9,0.6,3.8c2,1.2,6.8,1.4,12.7,0.5l0,1.5L18,9.1l-3.9-2.4v1.6
	c-2.4,0.3-6.4,0.5-8,0.4C3.5,8.4,1.8,8,1.5,7.3C1.8,6.5,5,5.8,5.2,5.7z"/>
<path d="M12,12.9c0.1,0.9-0.1,2.9-1,4.4c-0.9,1.3-2.9,0.8-3.8-0.8c-1.1-2.1-1-6.9,0.2-12.7L6,3.7L9.4,0l2.2,4L10,3.9
	c-0.4,2.4-0.9,6.4-0.8,8c0.1,2.6,0.4,4.3,1.1,4.7C11.1,16.3,12,13.1,12,12.9z"/>
</svg>
