<?xml version="1.0" encoding="utf-8"?>
<!-- Generator: Adobe Illustrator 19.2.0, SVG Export Plug-In . SVG Version: 6.00 Build 0)  -->
<svg version="1.1" id="Layer_1" xmlns="http://www.w3.org/2000/svg" xmlns:xlink="http://www.w3.org/1999/xlink" x="0px" y="0px"
	 viewBox="0 0 18 18" style="enable-background:new 0 0 18 18;" xml:space="preserve">
<style type="text/css">
	.st0{fill:#FFFFFF;}
</style>
<path d="M18,1.1v12.8c0,0.3-0.3,0.5-0.6,0.5H0.6c-0.3,0-0.6-0.2-0.6-0.5L0,1.1c0-0.3,0.3-0.5,0.6-0.5h16.8C17.7,0.7,18,0.9,18,1.1z"
	/>
<circle class="st0" cx="9" cy="7.5" r="4.6"/>
<path d="M12.6,17.3H5.2c-0.2,0-0.3-0.1-0.3-0.3v-0.8c0-0.2,0.1-0.3,0.3-0.3h7.3c0.2,0,0.3,0.1,0.3,0.3V17
	C12.9,17.2,12.7,17.3,12.6,17.3z"/>
</svg>
