<?xml version="1.0" encoding="utf-8"?>
<!-- Generator: Adobe Illustrator 19.2.0, SVG Export Plug-In . SVG Version: 6.00 Build 0)  -->
<svg version="1.1" id="Layer_1" xmlns="http://www.w3.org/2000/svg" xmlns:xlink="http://www.w3.org/1999/xlink" x="0px" y="0px"
	 viewBox="0 0 18 18" style="enable-background:new 0 0 18 18;" xml:space="preserve">
<style type="text/css">
	.st0{fill:none;stroke:#000000;stroke-width:2;stroke-linejoin:round;stroke-miterlimit:10;}
	.st1{fill:none;stroke:#000000;stroke-width:2;stroke-linecap:round;stroke-linejoin:round;stroke-miterlimit:10;}
	.st2{fill:#939393;stroke:#000000;stroke-width:2;stroke-linejoin:round;stroke-miterlimit:10;}
</style>
<polygon class="st0" points="9.4,17 1.1,13.6 1.1,3.3 9.1,1 17.1,3.1 17.1,13.6 "/>
<polyline class="st1" points="1.1,3.5 9.4,6.2 17.1,3.3 "/>
<line class="st2" x1="9.4" y1="6.2" x2="9.4" y2="17.1"/>
<g>
	<ellipse transform="matrix(0.9377 -0.3473 0.3473 0.9377 -3.1859 3.5052)" cx="8.2" cy="10.6" rx="0.5" ry="0.5"/>
	<g>
		<ellipse transform="matrix(0.9377 -0.3473 0.3473 0.9377 -3.5098 2.9276)" cx="6.4" cy="11.3" rx="0.5" ry="0.5"/>
		<ellipse transform="matrix(0.9377 -0.3473 0.3473 0.9377 -3.8608 2.3315)" cx="4.6" cy="11.9" rx="0.5" ry="0.5"/>
		<ellipse transform="matrix(0.9377 -0.3473 0.3473 0.9377 -4.2117 1.7355)" cx="2.7" cy="12.6" rx="0.5" ry="0.5"/>
	</g>
</g>
<g>
	<ellipse transform="matrix(0.3397 -0.9405 0.9405 0.3397 -1.5616 23.0015)" cx="15.6" cy="12.6" rx="0.5" ry="0.5"/>
	<g>
		<ellipse transform="matrix(0.3397 -0.9405 0.9405 0.3397 -2.0836 20.9091)" cx="13.9" cy="11.9" rx="0.5" ry="0.5"/>
		<ellipse transform="matrix(0.3397 -0.9405 0.9405 0.3397 -2.6745 18.7356)" cx="12" cy="11.3" rx="0.5" ry="0.5"/>
		<ellipse transform="matrix(0.3397 -0.9405 0.9405 0.3397 -3.2655 16.5621)" cx="10.2" cy="10.6" rx="0.5" ry="0.5"/>
	</g>
</g>
<g>
	
		<ellipse transform="matrix(1 -3.816151e-003 3.816151e-003 1 -3.168317e-002 3.470129e-002)" cx="9.1" cy="8.3" rx="0.5" ry="0.5"/>
	<g>
		
			<ellipse transform="matrix(1 -3.816151e-003 3.816151e-003 1 -2.452267e-002 3.481039e-002)" cx="9.1" cy="6.4" rx="0.5" ry="0.5"/>
		
			<ellipse transform="matrix(1 -3.816151e-003 3.816151e-003 1 -1.704284e-002 3.476758e-002)" cx="9.1" cy="4.5" rx="0.5" ry="0.5"/>
		
			<ellipse transform="matrix(1 -3.816151e-003 3.816151e-003 1 -9.563002e-003 3.472476e-002)" cx="9.1" cy="2.5" rx="0.5" ry="0.5"/>
	</g>
</g>
</svg>
