<?xml version="1.0" encoding="utf-8"?>
<!-- Generator: Adobe Illustrator 18.0.0, SVG Export Plug-In . SVG Version: 6.00 Build 0)  -->
<!DOCTYPE svg PUBLIC "-//W3C//DTD SVG 1.1//EN" "http://www.w3.org/Graphics/SVG/1.1/DTD/svg11.dtd">
<svg version="1.1" id="Layer_1" xmlns="http://www.w3.org/2000/svg" xmlns:xlink="http://www.w3.org/1999/xlink" x="0px" y="0px"
	 viewBox="0 0 860 369.1" enable-background="new 0 0 860 369.1" xml:space="preserve">
<rect x="0" y="0" display="none" fill="#415056" stroke="#000000" stroke-miterlimit="10" width="860" height="369.1"/>
<g>
	<path fill="#FFFFFF" d="M146,190.3v-35.9h-27.9v38.4L146,190.3z M45.6,263l221.8-19.8l24.6-88.8l-24.6-88.9L45.6,45.8L45.6,263z
		 M253.4,82.5l19.9,71.9H245l0,0l-15.5,55.7l-43.7,3.9v-27.3l22.7-2l8.2-30.3l0,0h-43.5v60.8L91,222.5v-68.1H63.8V65.6L253.4,82.5z"
		/>
	<path opacity="0.8" fill="#FFFFFF" enable-background="new    " d="M173.3,120.9v33.5h43.5l-8.2-30.3L173.3,120.9z M63.8,154.4H91
		V86.2l27.2,2.4v65.7H146V91.1l83.5,7.5l15.5,55.8h28.2l-19.9-71.9L63.8,65.6L63.8,154.4L63.8,154.4z"/>
	<g opacity="0.2">
		<polygon fill="#FFFFFF" points="91,154.4 91,222.5 173.3,215.2 173.3,154.4 146,154.4 146,190.3 118.2,192.8 118.2,154.4 		"/>
		<polygon fill="#FFFFFF" points="216.7,154.4 216.7,154.4 208.6,184.7 185.9,186.7 185.9,214 229.6,210.1 245.1,154.4 245,154.4 		
			"/>
	</g>
</g>
<path opacity="0.8" fill="#FFFFFF" enable-background="new    " d="M804.5,133.3H316.6c0-4-3-6.4-6.4-6.4c-3.4,0-6.3,2.7-6.3,6.1
	c0-3.4-2.8-6.2-6.2-6.2c-3.4,0-6.2,2.8-6.2,6.2c0-3.4-3-6.2-6.4-6.2c-3.4,0-6.4,2.8-6.4,6.2v42.9c0,3.4,3,6.2,6.4,6.2
	c3.4,0,6.3-2.8,6.3-6.2c0,3.4,2.8,6.2,6.2,6.2c3.4,0,6.2-2.8,6.2-6.2c0,3.4,3,6.2,6.4,6.2c3.4,0,6.4-2.8,6.4-6.2v-0.5h487.8
	c6.6,0,12.2-5.5,12.2-12.1v-18.3C816.6,138.3,811.1,133.3,804.5,133.3z"/>
<g opacity="0.8" enable-background="new    ">
	<path fill="#FFFFFF" d="M380.8,197.9H402V293h-21.2v-37.4H343V293h-21.2v-95.1H343v39.7h37.8V197.9z"/>
	<path fill="#FFFFFF" d="M465.6,216.3V293h-21.2v-76.7h-26.9v-18.4h75.1v18.4H465.6z"/>
	<path fill="#FFFFFF" d="M575.8,293l-8.8-20.5h-39.8l-8.8,20.5h-22.6l41.1-95.1h20.5l41.1,95.1H575.8z M547.1,226.2l-12,27.6h23.8
		L547.1,226.2z"/>
	<path fill="#FFFFFF" d="M653,274.2c10.4,0,18.9-4.1,25.6-12.4l13.6,14c-10.8,12.2-23.5,18.2-38.1,18.2c-14.6,0-26.7-4.6-36.2-13.9
		c-9.5-9.2-14.2-20.9-14.2-35c0-14.1,4.8-25.9,14.5-35.3c9.7-9.4,21.5-14.1,35.4-14.1c15.6,0,28.6,5.9,39.2,17.8l-13.2,15
		c-6.7-8.3-15.1-12.5-25-12.5c-8,0-14.8,2.6-20.5,7.8c-5.7,5.2-8.5,12.2-8.5,21.1s2.7,15.9,8,21.3
		C638.9,271.5,645.4,274.2,653,274.2z"/>
	<path fill="#FFFFFF" d="M770.7,244.6H792v33.7c-9.4,10.5-22.5,15.8-39.2,15.8c-14,0-25.7-4.6-35.2-13.9c-9.5-9.2-14.2-20.9-14.2-35
		c0-14.1,4.8-25.9,14.5-35.3c9.7-9.4,21.3-14.1,35-14.1c13.6,0,25.5,4.5,35.6,13.5l-11,15.9c-4.3-3.7-8.2-6.3-11.8-7.7
		c-3.6-1.4-7.5-2.1-11.6-2.1c-8.1,0-14.9,2.7-20.4,8.2c-5.5,5.5-8.3,12.7-8.3,21.7c0,9,2.7,16.2,8,21.6c5.3,5.4,11.6,8.1,19,8.1
		s13.5-1.4,18.4-4.2V244.6z"/>
</g>
<g>
</g>
<g>
</g>
<g>
</g>
<g>
</g>
<g>
</g>
<g>
</g>
<g>
</g>
<g>
</g>
<g>
</g>
<g>
</g>
<g>
</g>
<g>
</g>
<g>
</g>
<g>
</g>
<g>
</g>
</svg>
