<?xml version="1.0" encoding="utf-8"?>
<!-- Generator: Adobe Illustrator 18.0.0, SVG Export Plug-In . SVG Version: 6.00 Build 0)  -->
<!DOCTYPE svg PUBLIC "-//W3C//DTD SVG 1.1//EN" "http://www.w3.org/Graphics/SVG/1.1/DTD/svg11.dtd">
<svg version="1.1" id="Layer_1" xmlns="http://www.w3.org/2000/svg" xmlns:xlink="http://www.w3.org/1999/xlink" x="0px" y="0px"
	 viewBox="0 0 860 369.1" enable-background="new 0 0 860 369.1" xml:space="preserve">
<rect x="0" y="0" display="none" fill="#415056" stroke="#000000" stroke-miterlimit="10" width="860" height="369.1"/>
<g>
	<path fill="#FFFFFF" d="M146,190.3v-35.9h-27.9v38.4L146,190.3z M45.6,263l221.8-19.8l24.6-88.8l-24.6-88.9L45.6,45.8L45.6,263z
		 M253.4,82.5l19.9,71.9H245l0,0l-15.5,55.7l-43.7,3.9v-27.3l22.7-2l8.2-30.3l0,0h-43.5v60.8L91,222.5v-68.1H63.8V65.6L253.4,82.5z"
		/>
	<path opacity="0.8" fill="#FFFFFF" enable-background="new    " d="M173.3,120.9v33.5h43.5l-8.2-30.3L173.3,120.9z M63.8,154.4H91
		V86.2l27.2,2.4v65.7H146V91.1l83.5,7.5l15.5,55.8h28.2l-19.9-71.9L63.8,65.6L63.8,154.4L63.8,154.4z"/>
	<g opacity="0.2">
		<polygon fill="#FFFFFF" points="91,154.4 91,222.5 173.3,215.2 173.3,154.4 146,154.4 146,190.3 118.2,192.8 118.2,154.4 		"/>
		<polygon fill="#FFFFFF" points="216.7,154.4 216.7,154.4 208.6,184.7 185.9,186.7 185.9,214 229.6,210.1 245.1,154.4 245,154.4 		
			"/>
	</g>
</g>
<path opacity="0.8" fill="#FFFFFF" enable-background="new    " d="M804.5,133.3H316.6c0-4-3-6.4-6.4-6.4c-3.4,0-6.3,2.7-6.3,6.1
	c0-3.4-2.8-6.2-6.2-6.2c-3.4,0-6.2,2.8-6.2,6.2c0-3.4-3-6.2-6.4-6.2c-3.4,0-6.4,2.8-6.4,6.2v42.9c0,3.4,3,6.2,6.4,6.2
	c3.4,0,6.3-2.8,6.3-6.2c0,3.4,2.8,6.2,6.2,6.2c3.4,0,6.2-2.8,6.2-6.2c0,3.4,3,6.2,6.4,6.2c3.4,0,6.4-2.8,6.4-6.2v-0.5h487.8
	c6.6,0,12.2-5.5,12.2-12.1v-18.3C816.6,138.3,811.1,133.3,804.5,133.3z"/>
<g opacity="0.8" enable-background="new    ">
	<path fill="#FFFFFF" d="M413.8,45.6h18.1v81.1h-18.1V94.8h-32.2v31.9h-18.1V45.6h18.1v33.9h32.2V45.6z"/>
	<path fill="#FFFFFF" d="M486.2,61.3v65.4h-18.1V61.3h-23V45.6h64v15.7H486.2z"/>
	<path fill="#FFFFFF" d="M580.2,126.7l-7.5-17.5h-34l-7.5,17.5h-19.3l35-81.1h17.5l35,81.1H580.2z M555.7,69.8l-10.2,23.5h20.3
		L555.7,69.8z"/>
	<path fill="#FFFFFF" d="M646,110.7c8.9,0,16.2-3.5,21.8-10.6l11.6,11.9c-9.2,10.4-20,15.5-32.5,15.5c-12.5,0-22.8-3.9-30.9-11.8
		C608,107.9,603.9,98,603.9,86c0-12,4.1-22.1,12.4-30.1c8.2-8,18.3-12.1,30.2-12.1c13.3,0,24.4,5.1,33.4,15.2l-11.3,12.8
		c-5.7-7.1-12.8-10.7-21.3-10.7c-6.8,0-12.6,2.2-17.5,6.7c-4.8,4.4-7.2,10.4-7.2,18s2.3,13.6,6.8,18.2
		C634,108.4,639.5,110.7,646,110.7z"/>
	<path fill="#FFFFFF" d="M746.4,85.4h18.2v28.8c-8,9-19.2,13.5-33.4,13.5c-11.9,0-21.9-3.9-30-11.8c-8.1-7.9-12.1-17.8-12.1-29.9
		c0-12,4.1-22.1,12.4-30.1c8.2-8,18.2-12.1,29.8-12.1c11.6,0,21.8,3.8,30.3,11.5l-9.4,13.6c-3.6-3.2-7-5.4-10-6.6
		c-3.1-1.2-6.4-1.8-9.9-1.8c-6.9,0-12.7,2.3-17.4,7c-4.7,4.7-7.1,10.8-7.1,18.5c0,7.7,2.3,13.8,6.8,18.4c4.5,4.6,9.9,6.9,16.2,6.9
		c6.3,0,11.5-1.2,15.7-3.6V85.4z"/>
</g>
<g>
</g>
<g>
</g>
<g>
</g>
<g>
</g>
<g>
</g>
<g>
</g>
<g>
</g>
<g>
</g>
<g>
</g>
<g>
</g>
<g>
</g>
<g>
</g>
<g>
</g>
<g>
</g>
<g>
</g>
</svg>
