<?xml version="1.0" encoding="UTF-8" standalone="no"?>
<svg
   xmlns:dc="http://purl.org/dc/elements/1.1/"
   xmlns:cc="http://creativecommons.org/ns#"
   xmlns:rdf="http://www.w3.org/1999/02/22-rdf-syntax-ns#"
   xmlns:svg="http://www.w3.org/2000/svg"
   xmlns="http://www.w3.org/2000/svg"
   xmlns:sodipodi="http://sodipodi.sourceforge.net/DTD/sodipodi-0.dtd"
   xmlns:inkscape="http://www.inkscape.org/namespaces/inkscape"
   width="24"
   height="24"
   viewBox="0 0 24 24"
   id="svg2"
   version="1.1"
   inkscape:version="0.91 r13725"
   sodipodi:docname="edit-delete-24px.svg">
  <metadata
     id="metadata10">
    <rdf:RDF>
      <cc:Work
         rdf:about="">
        <dc:format>image/svg+xml</dc:format>
        <dc:type
           rdf:resource="http://purl.org/dc/dcmitype/StillImage" />
        <dc:title></dc:title>
      </cc:Work>
    </rdf:RDF>
  </metadata>
  <defs
     id="defs8" />
  <sodipodi:namedview
     pagecolor="#ffffff"
     bordercolor="#666666"
     borderopacity="1"
     objecttolerance="10"
     gridtolerance="10"
     guidetolerance="10"
     inkscape:pageopacity="0"
     inkscape:pageshadow="2"
     inkscape:window-width="1536"
     inkscape:window-height="801"
     id="namedview6"
     showgrid="false"
     inkscape:zoom="26.333333"
     inkscape:cx="12"
     inkscape:cy="12"
     inkscape:window-x="-8"
     inkscape:window-y="-8"
     inkscape:window-maximized="1"
     inkscape:current-layer="svg2" />
  <path
     d="m 10.392405,-0.01265823 c -1.6499999,0 -2.9999999,1.35000003 -2.9999999,3.00000003 l -3,0 c -1.65,0 -3,1.35 -3,3 l 20.9999999,0 c 0,-1.65 -1.35,-3 -3,-3 l -3,0 c 0,-1.65 -1.35,-3.00000003 -3,-3.00000003 l -3,0 z m -5.9999999,9.00000003 0,14.4300002 c 0,0.33 0.24,0.57 0.57,0.57 l 13.8899999,0 c 0.33,0 0.57,-0.24 0.57,-0.57 l 0,-14.4300002 -3,0 0,10.5000002 c 0,0.84 -0.66,1.5 -1.5,1.5 -0.84,0 -1.5,-0.66 -1.5,-1.5 l 0,-10.5000002 -3,0 0,10.5000002 c 0,0.84 -0.6599999,1.5 -1.4999999,1.5 -0.84,0 -1.5,-0.66 -1.5,-1.5 l 0,-10.5000002 -3,0 z"
     id="path4"
     inkscape:connector-curvature="0" />
</svg>
