<?xml version="1.0" encoding="UTF-8" standalone="no"?>
<!-- Generator: Adobe Illustrator 19.2.0, SVG Export Plug-In . SVG Version: 6.00 Build 0)  -->

<svg
   xmlns:dc="http://purl.org/dc/elements/1.1/"
   xmlns:cc="http://creativecommons.org/ns#"
   xmlns:rdf="http://www.w3.org/1999/02/22-rdf-syntax-ns#"
   xmlns:svg="http://www.w3.org/2000/svg"
   xmlns="http://www.w3.org/2000/svg"
   xmlns:sodipodi="http://sodipodi.sourceforge.net/DTD/sodipodi-0.dtd"
   xmlns:inkscape="http://www.inkscape.org/namespaces/inkscape"
   version="1.1"
   id="Layer_1"
   x="0px"
   y="0px"
   viewBox="0 0 18 18"
   style="enable-background:new 0 0 18 18;"
   xml:space="preserve"
   inkscape:version="0.91 r13725"
   sodipodi:docname="scene-polygon-24px.svg"><metadata
     id="metadata4145"><rdf:RDF><cc:Work
         rdf:about=""><dc:format>image/svg+xml</dc:format><dc:type
           rdf:resource="http://purl.org/dc/dcmitype/StillImage" /><dc:title /></cc:Work></rdf:RDF></metadata><defs
     id="defs4143" /><sodipodi:namedview
     pagecolor="#ffffff"
     bordercolor="#666666"
     borderopacity="1"
     objecttolerance="10"
     gridtolerance="10"
     guidetolerance="10"
     inkscape:pageopacity="0"
     inkscape:pageshadow="2"
     inkscape:window-width="1536"
     inkscape:window-height="801"
     id="namedview4141"
     showgrid="false"
     inkscape:zoom="35.111111"
     inkscape:cx="8.9719267"
     inkscape:cy="9.9303797"
     inkscape:window-x="-8"
     inkscape:window-y="-8"
     inkscape:window-maximized="1"
     inkscape:current-layer="Layer_1" /><path
     style="opacity:1;fill:#b3b3b3;fill-opacity:1;fill-rule:evenodd;stroke:#000000;stroke-width:0;stroke-linecap:round;stroke-linejoin:round;stroke-miterlimit:4;stroke-dasharray:none;stroke-opacity:1"
     d="m 12.124342,1.5521103 c 0.03851,0.049842 5.233776,10.9600627 5.22807,10.9791797 -0.0066,0.02238 -10.257789,2.948313 -10.2883145,2.936567 -0.01417,-0.0054 -1.262497,-1.273309 -2.7741472,-2.817493 L 1.5414944,9.8427538 2.2502911,7.5281992 C 2.6401315,6.2551941 2.9730741,5.2099744 2.990167,5.2054926 c 0.030018,-0.00776 3.4617241,0.4359496 3.7316747,0.4825887 0.090897,0.015704 0.2383915,0.08518 0.4699509,0.221369 0.2415605,0.1420718 0.3475277,0.1914105 0.3728413,0.1735957 0.019459,-0.013672 1.0386928,-1.0403903 2.264982,-2.2815617 1.2262931,-1.2411706 2.2379801,-2.2631637 2.2481981,-2.2710941 0.01025,-0.00786 0.03119,0.00188 0.04653,0.021728 z"
     id="path4255"
     inkscape:connector-curvature="0" /><path
     d="M5.1,15.5l-2.7-2.7L15,0.3c0.5-0.5,2-0.4,2.6,0.1s0.6,2,0.1,2.5L5.1,15.5z"
     id="path4137" /><path
     d="M1.4,14.5l2.1,2.1c0.1,0.1,0.1,0.4,0,0.4l-3.1,1c-0.2,0.1-0.4-0.2-0.4-0.4l1-3.1C1,14.4,1.3,14.4,1.4,14.5z"
     id="path4139" /></svg>