<?xml version="1.0" encoding="utf-8"?>
<!-- Generator: Adobe Illustrator 19.2.0, SVG Export Plug-In . SVG Version: 6.00 Build 0)  -->
<svg version="1.1" id="Layer_1" xmlns="http://www.w3.org/2000/svg" xmlns:xlink="http://www.w3.org/1999/xlink" x="0px" y="0px"
	 viewBox="0 0 18 18" style="enable-background:new 0 0 18 18;" xml:space="preserve">
<path d="M12.2,18c1.6,0,1.7-0.4,2.4-2.5c0.6-1.8,2.2-10.9,2.3-11.8c0-0.9-1.4-0.8-1.5-0.1c-0.3,1.7-0.6,3.3-0.9,4.4
	c-0.1,0.5-0.7,0.5-0.7-0.1c0-2.2,0.4-4.7,0.4-6.2c0-1.1-1.7-1.1-1.8-0.1c-0.2,1.9-0.6,5.3-0.6,5.6c0,0.6-0.7,0.6-0.7-0.1
	c0-1-0.1-5.4-0.1-6.5c-0.1-1.1-2-1-2,0.1c0,2.2,0,6.3,0,6.6c0,0.5-0.6,0.7-0.7,0C7.8,5.3,7.2,3,7,2.1C6.8,0.9,5.2,1.3,5.2,2.2
	C5.1,4,6.2,10.4,5.8,10.8C5.2,11.4,3.7,8.2,2.6,8C1.9,7.8,0.7,8.2,1.2,9c1.2,2.1,2,3.5,2.8,4.7C4.8,14.8,5.7,18,7.8,18
	C8.4,18,10.9,18,12.2,18z"/>
</svg>
