<?xml version="1.0" encoding="UTF-8" standalone="no"?>
<!-- Generator: Adobe Illustrator 19.2.0, SVG Export Plug-In . SVG Version: 6.00 Build 0)  -->

<svg
   xmlns:dc="http://purl.org/dc/elements/1.1/"
   xmlns:cc="http://creativecommons.org/ns#"
   xmlns:rdf="http://www.w3.org/1999/02/22-rdf-syntax-ns#"
   xmlns:svg="http://www.w3.org/2000/svg"
   xmlns="http://www.w3.org/2000/svg"
   xmlns:sodipodi="http://sodipodi.sourceforge.net/DTD/sodipodi-0.dtd"
   xmlns:inkscape="http://www.inkscape.org/namespaces/inkscape"
   version="1.1"
   id="Layer_1"
   x="0px"
   y="0px"
   viewBox="0 0 18 18"
   style="enable-background:new 0 0 18 18;"
   xml:space="preserve"
   inkscape:version="0.91 r13725"
   sodipodi:docname="scene-polygon-24px.svg"><metadata
     id="metadata4155"><rdf:RDF><cc:Work
         rdf:about=""><dc:format>image/svg+xml</dc:format><dc:type
           rdf:resource="http://purl.org/dc/dcmitype/StillImage" /><dc:title></dc:title></cc:Work></rdf:RDF></metadata><defs
     id="defs4153" /><sodipodi:namedview
     pagecolor="#ffffff"
     bordercolor="#666666"
     borderopacity="1"
     objecttolerance="10"
     gridtolerance="10"
     guidetolerance="10"
     inkscape:pageopacity="0"
     inkscape:pageshadow="2"
     inkscape:window-width="1536"
     inkscape:window-height="801"
     id="namedview4151"
     showgrid="false"
     inkscape:zoom="35.111111"
     inkscape:cx="9"
     inkscape:cy="9"
     inkscape:window-x="-8"
     inkscape:window-y="-8"
     inkscape:window-maximized="1"
     inkscape:current-layer="Layer_1" /><style
     type="text/css"
     id="style4137">
	.st0{fill:none;stroke:#000000;stroke-linejoin:round;stroke-miterlimit:10;}
</style><polyline
     class="st0"
     points="1.4,15.3 5.6,2.7 16,2.7 16.8,15.7 8.9,11.6 "
     id="polyline4139"
     transform="matrix(1.0260891,-0.07324557,0.07443389,1.0553923,-1.1898549,-0.31771351)"
     style="fill:none;stroke:#000000;stroke-linejoin:round;stroke-miterlimit:10" /><circle
     cx="8.7854433"
     cy="11.586076"
     r="2"
     id="circle4141" /><circle
     cx="16"
     cy="2.0164557"
     r="2"
     id="circle4143" /><circle
     cx="4.5044308"
     cy="1.9879748"
     r="2"
     id="circle4145" /><circle
     cx="16.028481"
     cy="14.388608"
     r="2"
     id="circle4147" /><circle
     cx="2.028481"
     cy="16.040506"
     r="2"
     id="circle4149" /><rect
     style="opacity:1;fill:#000000;fill-opacity:1;fill-rule:evenodd;stroke:#000000;stroke-width:0;stroke-linecap:round;stroke-linejoin:round;stroke-miterlimit:4;stroke-dasharray:none;stroke-opacity:1"
     id="rect4157"
     width="7.7498713"
     height="1.3296562"
     x="-7.942482"
     y="13.872101"
     transform="matrix(0.83193935,-0.55486658,0.61678986,0.78712786,0,0)" /><path
     style="opacity:1;fill:#808080;fill-opacity:1;fill-rule:evenodd;stroke:#000000;stroke-width:0;stroke-linecap:round;stroke-linejoin:round;stroke-miterlimit:4;stroke-dasharray:none;stroke-opacity:1"
     d="M 3.0901899,14.332097 C 2.9165981,14.222867 2.6663788,14.118784 2.4826554,14.079383 L 2.3457944,14.050032 3.5927275,9.0206917 C 4.2785407,6.2545548 4.8433398,3.9886037 4.8478366,3.9852445 4.8523335,3.9818854 4.9649525,3.9456586 5.0981013,3.9047406 5.6676597,3.7297093 6.1564383,3.2835028 6.3672778,2.7461081 L 6.443716,2.55128 6.6324591,2.5337671 C 6.7362682,2.524135 8.352769,2.4080594 10.224684,2.2758213 c 1.871914,-0.1322381 3.481845,-0.24809 3.577624,-0.2574487 l 0.174144,-0.017016 0.0204,0.2070177 c 0.02654,0.2693401 0.129778,0.5904377 0.264287,0.8220007 0.154429,0.2658553 0.514885,0.6170252 0.769716,0.7498855 0.113568,0.059211 0.206488,0.1245525 0.206488,0.1452044 0,0.04343 1.074209,8.2800261 1.094881,8.3950991 l 0.01376,0.07658 -0.197395,-0.01655 c -0.560507,-0.04699 -1.218986,0.21882 -1.604627,0.647745 -0.117722,0.130936 -0.142328,0.146053 -0.197598,0.121398 -0.03472,-0.01549 -0.846382,-0.377113 -1.803689,-0.803609 l -1.740559,-0.775447 -0.01869,-0.201086 C 10.736748,10.867391 10.464917,10.361633 10.063975,10.031018 9.4226258,9.5021621 8.4711705,9.4335291 7.7468013,9.8638693 7.3481671,10.100693 7.0186491,10.516781 6.8718677,10.968663 c -0.082228,0.253147 -0.1164654,0.698711 -0.072139,0.93881 l 0.027261,0.147662 -1.7757995,1.183825 c -0.9766898,0.651104 -1.7854287,1.183581 -1.7971974,1.183284 -0.011769,-2.98e-4 -0.08548,-0.04086 -0.1638028,-0.09015 z"
     id="path4159"
     inkscape:connector-curvature="0" /></svg>