<?xml version="1.0" encoding="utf-8"?>
<!-- Generator: Adobe Illustrator 19.2.0, SVG Export Plug-In . SVG Version: 6.00 Build 0)  -->
<svg version="1.1" id="Layer_1" xmlns="http://www.w3.org/2000/svg" xmlns:xlink="http://www.w3.org/1999/xlink" x="0px" y="0px"
	 viewBox="0 0 18 18" style="enable-background:new 0 0 18 18;" xml:space="preserve">
<style type="text/css">
	.st0{fill:none;stroke:#000000;stroke-linejoin:round;stroke-miterlimit:10;}
	.st1{fill:none;stroke:#000000;stroke-linecap:round;stroke-linejoin:round;stroke-miterlimit:10;}
	.st2{fill:#939393;stroke:#000000;stroke-linejoin:round;stroke-miterlimit:10;}
	.st3{fill:none;stroke:#4C4C4D;stroke-linejoin:round;stroke-miterlimit:10;}
</style>
<g>
	<polygon class="st0" points="14,17.5 10.3,13.9 10.3,3.1 13.9,0.7 17.6,2.9 17.6,13.9 	"/>
	<polyline class="st1" points="10.3,3.1 14,6 17.6,3 	"/>
	<line class="st2" x1="14" y1="6" x2="14" y2="17.4"/>
</g>
<g>
	<polygon class="st3" points="4.2,17.5 0.4,14 0.4,3.1 4.1,0.7 7.8,2.9 7.8,14 	"/>
	<polyline class="st3" points="0.4,3.1 4.2,6 7.8,3 	"/>
	<line class="st3" x1="4.2" y1="6" x2="4.2" y2="17.5"/>
</g>
<g>
	<circle cx="9.1" cy="1.4" r="0.4"/>
	<circle cx="9.1" cy="4" r="0.4"/>
	<circle cx="9.1" cy="6.5" r="0.4"/>
	<circle cx="9.1" cy="9.1" r="0.4"/>
	<circle cx="9.1" cy="11.5" r="0.4"/>
	<circle cx="9.1" cy="14.2" r="0.4"/>
	<circle cx="9.1" cy="16.8" r="0.4"/>
</g>
</svg>
