<?xml version="1.0" encoding="UTF-8" standalone="no"?>
<!-- Generator: Adobe Illustrator 19.2.0, SVG Export Plug-In . SVG Version: 6.00 Build 0)  -->

<svg
   xmlns:dc="http://purl.org/dc/elements/1.1/"
   xmlns:cc="http://creativecommons.org/ns#"
   xmlns:rdf="http://www.w3.org/1999/02/22-rdf-syntax-ns#"
   xmlns:svg="http://www.w3.org/2000/svg"
   xmlns="http://www.w3.org/2000/svg"
   xmlns:sodipodi="http://sodipodi.sourceforge.net/DTD/sodipodi-0.dtd"
   xmlns:inkscape="http://www.inkscape.org/namespaces/inkscape"
   version="1.1"
   id="Layer_1"
   x="0px"
   y="0px"
   viewBox="0 0 18 18"
   style="enable-background:new 0 0 18 18;"
   xml:space="preserve"
   inkscape:version="0.91 r13725"
   sodipodi:docname="scene-line-24px.svg"><metadata
     id="metadata11"><rdf:RDF><cc:Work
         rdf:about=""><dc:format>image/svg+xml</dc:format><dc:type
           rdf:resource="http://purl.org/dc/dcmitype/StillImage" /><dc:title></dc:title></cc:Work></rdf:RDF></metadata><defs
     id="defs9" /><sodipodi:namedview
     pagecolor="#ffffff"
     bordercolor="#666666"
     borderopacity="1"
     objecttolerance="10"
     gridtolerance="10"
     guidetolerance="10"
     inkscape:pageopacity="0"
     inkscape:pageshadow="2"
     inkscape:window-width="1536"
     inkscape:window-height="841"
     id="namedview7"
     showgrid="false"
     inkscape:zoom="13.111111"
     inkscape:cx="9"
     inkscape:cy="9"
     inkscape:window-x="-8"
     inkscape:window-y="-8"
     inkscape:window-maximized="1"
     inkscape:current-layer="Layer_1" /><rect
     style="opacity:1;fill:#666666;fill-opacity:1;fill-rule:evenodd;stroke:#000000;stroke-width:0;stroke-linecap:round;stroke-linejoin:round;stroke-miterlimit:4;stroke-dasharray:none;stroke-opacity:1"
     id="rect4139"
     width="1.3372072"
     height="15.243053"
     x="16.694191"
     y="-12.048562"
     transform="matrix(0.2200447,0.97548979,-0.98905052,0.1475773,0,0)" /><path
     d="M5.1,15.5l-2.7-2.7L15,0.3c0.5-0.5,2-0.4,2.6,0.1s0.6,2,0.1,2.5L5.1,15.5z"
     id="path3" /><path
     d="M1.4,14.5l2.1,2.1c0.1,0.1,0.1,0.4,0,0.4l-3.1,1c-0.2,0.1-0.4-0.2-0.4-0.4l1-3.1C1,14.4,1.3,14.4,1.4,14.5z"
     id="path5" /><path
     style="opacity:1;fill:#666666;fill-opacity:1;fill-rule:evenodd;stroke:#000000;stroke-width:0;stroke-linecap:round;stroke-linejoin:round;stroke-miterlimit:4;stroke-dasharray:none;stroke-opacity:1"
     id="path4141"
     sodipodi:type="arc"
     sodipodi:cx="15.673728"
     sodipodi:cy="15.13983"
     sodipodi:rx="1.0296611"
     sodipodi:ry="0.95338982"
     sodipodi:start="0"
     sodipodi:end="5.7865252"
     d="m 16.703389,15.13983 a 1.0296611,0.95338982 0 0 1 -0.902141,0.94605 1.0296611,0.95338982 0 0 1 -1.125595,-0.711721 1.0296611,0.95338982 0 0 1 0.62334,-1.122338 1.0296611,0.95338982 0 0 1 1.279991,0.433726"
     sodipodi:open="true" /></svg>