<?xml version="1.0" encoding="UTF-8" standalone="no"?>
<!-- Generator: Adobe Illustrator 19.2.0, SVG Export Plug-In . SVG Version: 6.00 Build 0)  -->

<svg
   xmlns:dc="http://purl.org/dc/elements/1.1/"
   xmlns:cc="http://creativecommons.org/ns#"
   xmlns:rdf="http://www.w3.org/1999/02/22-rdf-syntax-ns#"
   xmlns:svg="http://www.w3.org/2000/svg"
   xmlns="http://www.w3.org/2000/svg"
   xmlns:sodipodi="http://sodipodi.sourceforge.net/DTD/sodipodi-0.dtd"
   xmlns:inkscape="http://www.inkscape.org/namespaces/inkscape"
   version="1.1"
   id="Layer_1"
   x="0px"
   y="0px"
   viewBox="0 0 18 18"
   style="enable-background:new 0 0 18 18;"
   xml:space="preserve"
   inkscape:version="0.91 r13725"
   sodipodi:docname="viewer-bookmarksketch-24px.svg"><metadata
     id="metadata11"><rdf:RDF><cc:Work
         rdf:about=""><dc:format>image/svg+xml</dc:format><dc:type
           rdf:resource="http://purl.org/dc/dcmitype/StillImage" /><dc:title></dc:title></cc:Work></rdf:RDF></metadata><defs
     id="defs9" /><sodipodi:namedview
     pagecolor="#ffffff"
     bordercolor="#666666"
     borderopacity="1"
     objecttolerance="10"
     gridtolerance="10"
     guidetolerance="10"
     inkscape:pageopacity="0"
     inkscape:pageshadow="2"
     inkscape:window-width="1536"
     inkscape:window-height="841"
     id="namedview7"
     showgrid="false"
     inkscape:zoom="13.111111"
     inkscape:cx="-4.0042374"
     inkscape:cy="8.9999999"
     inkscape:window-x="-8"
     inkscape:window-y="-8"
     inkscape:window-maximized="1"
     inkscape:current-layer="Layer_1" /><path
     d="M17.4,5H12l0-1.8c0-0.3-0.3-0.5-0.5-0.5H6.6C6.3,2.7,6,2.9,6,3.3L6,5H0.6C0.3,5,0,5.2,0,5.5v9.9C0,15.7,0.3,16,0.6,16h16.9  c0.3,0,0.5-0.3,0.5-0.6V5.5C18,5.2,17.7,5,17.4,5z M9,14.9c-2.5,0-4.5-2-4.5-4.5C4.5,8,6.5,6,9,6s4.5,2,4.5,4.5  C13.5,12.9,11.5,14.9,9,14.9z"
     id="path3" /><path
     inkscape:connector-curvature="0"
     d="M 8.9376503,11.941776 7.7425228,10.73647 13.319784,5.1563505 c 0.221319,-0.2232049 0.885279,-0.1785639 1.150864,0.044641 0.265584,0.2232047 0.265584,0.8928191 0.04426,1.1160238 L 8.9376503,11.941776 Z"
     id="path3-7" /><path
     inkscape:connector-curvature="0"
     d="m 7.2998831,11.495366 0.9295434,0.937461 c 0.044264,0.04465 0.044264,0.178563 0,0.178563 l -1.372183,0.446409 c -0.088528,0.04464 -0.1770559,-0.08928 -0.1770559,-0.178563 l 0.4426396,-1.38387 c 0,-0.04465 0.132792,-0.04465 0.1770559,0 z"
     id="path5" /></svg>