<?xml version="1.0" encoding="utf-8"?>
<!-- Generator: Adobe Illustrator 19.2.0, SVG Export Plug-In . SVG Version: 6.00 Build 0)  -->
<svg version="1.1" id="Layer_1" xmlns="http://www.w3.org/2000/svg" xmlns:xlink="http://www.w3.org/1999/xlink" x="0px" y="0px"
	 viewBox="0 0 18 18" style="enable-background:new 0 0 18 18;" xml:space="preserve">
<style type="text/css">
	.st0{fill:#939393;}
	.st1{fill:none;stroke:#000000;stroke-linejoin:round;stroke-miterlimit:10;}
	.st2{fill:none;stroke:#000000;stroke-linecap:round;stroke-linejoin:round;stroke-miterlimit:10;}
	.st3{fill:#939393;stroke:#000000;stroke-linejoin:round;stroke-miterlimit:10;}
</style>
<polygon class="st0" points="17.5,2.8 9.3,6 0.5,3.1 9,0.5 "/>
<polygon class="st1" points="9.3,17.5 0.5,14 0.5,2.9 9,0.5 17.5,2.8 17.5,14 "/>
<polyline class="st2" points="0.5,3.1 9.3,6 17.5,3 "/>
<line class="st3" x1="9.3" y1="6" x2="9.3" y2="17.6"/>
<g>
	<ellipse transform="matrix(0.9377 -0.3473 0.3473 0.9377 -3.2477 3.4604)" cx="8" cy="10.8" rx="0.5" ry="0.5"/>
	<g>
		<ellipse transform="matrix(0.9377 -0.3473 0.3473 0.9377 -3.5927 2.8453)" cx="6.1" cy="11.4" rx="0.5" ry="0.5"/>
		<ellipse transform="matrix(0.9377 -0.3473 0.3473 0.9377 -3.9664 2.2105)" cx="4.2" cy="12.2" rx="0.5" ry="0.5"/>
		<ellipse transform="matrix(0.9377 -0.3473 0.3473 0.9377 -4.3402 1.5757)" cx="2.2" cy="12.9" rx="0.5" ry="0.5"/>
	</g>
</g>
<g>
	<ellipse transform="matrix(0.3397 -0.9405 0.9405 0.3397 -1.6077 23.4927)" cx="15.9" cy="12.9" rx="0.5" ry="0.5"/>
	<g>
		<ellipse transform="matrix(0.3397 -0.9405 0.9405 0.3397 -2.1636 21.2642)" cx="14.1" cy="12.2" rx="0.5" ry="0.5"/>
		<ellipse transform="matrix(0.3397 -0.9405 0.9405 0.3397 -2.793 18.9494)" cx="12.1" cy="11.5" rx="0.5" ry="0.5"/>
		<ellipse transform="matrix(0.3397 -0.9405 0.9405 0.3397 -3.4223 16.6345)" cx="10.1" cy="10.8" rx="0.5" ry="0.5"/>
	</g>
</g>
<g>
	<ellipse transform="matrix(1 -3.816151e-003 3.816151e-003 1 -3.168063e-002 3.432925e-002)" cx="9" cy="8.3" rx="0.5" ry="0.5"/>
	<g>
		<ellipse transform="matrix(1 -3.816151e-003 3.816151e-003 1 -2.405443e-002 3.444545e-002)" cx="9" cy="6.3" rx="0.5" ry="0.5"/>
		<ellipse transform="matrix(1 -3.816151e-003 3.816151e-003 1 -1.608813e-002 3.439985e-002)" cx="9" cy="4.2" rx="0.5" ry="0.5"/>
		<ellipse transform="matrix(1 -3.816151e-003 3.816151e-003 1 -8.121818e-003 3.435425e-002)" cx="9" cy="2.1" rx="0.5" ry="0.5"/>
	</g>
</g>
</svg>
