<?xml version="1.0" encoding="UTF-8" standalone="no"?>
<!-- Generator: Adobe Illustrator 19.2.0, SVG Export Plug-In . SVG Version: 6.00 Build 0)  -->

<svg
   xmlns:osb="http://www.openswatchbook.org/uri/2009/osb"
   xmlns:dc="http://purl.org/dc/elements/1.1/"
   xmlns:cc="http://creativecommons.org/ns#"
   xmlns:rdf="http://www.w3.org/1999/02/22-rdf-syntax-ns#"
   xmlns:svg="http://www.w3.org/2000/svg"
   xmlns="http://www.w3.org/2000/svg"
   xmlns:sodipodi="http://sodipodi.sourceforge.net/DTD/sodipodi-0.dtd"
   xmlns:inkscape="http://www.inkscape.org/namespaces/inkscape"
   version="1.1"
   id="Layer_1"
   x="0px"
   y="0px"
   viewBox="0 0 18 18"
   style="enable-background:new 0 0 18 18;"
   xml:space="preserve"
   inkscape:version="0.91 r13725"
   sodipodi:docname="viewer-allcanvas-24px.svg"><metadata
     id="metadata4696"><rdf:RDF><cc:Work
         rdf:about=""><dc:format>image/svg+xml</dc:format><dc:type
           rdf:resource="http://purl.org/dc/dcmitype/StillImage" /><dc:title /></cc:Work></rdf:RDF></metadata><defs
     id="defs4694"><linearGradient
       id="linearGradient6691"
       osb:paint="solid"><stop
         style="stop-color:#000000;stop-opacity:1;"
         offset="0"
         id="stop6693" /></linearGradient></defs><sodipodi:namedview
     pagecolor="#ffffff"
     bordercolor="#666666"
     borderopacity="1"
     objecttolerance="10"
     gridtolerance="10"
     guidetolerance="10"
     inkscape:pageopacity="0"
     inkscape:pageshadow="2"
     inkscape:window-width="1536"
     inkscape:window-height="801"
     id="namedview4692"
     showgrid="false"
     inkscape:zoom="13.111111"
     inkscape:cx="9"
     inkscape:cy="9"
     inkscape:window-x="-8"
     inkscape:window-y="-8"
     inkscape:window-maximized="1"
     inkscape:current-layer="Layer_1" /><style
     type="text/css"
     id="style4688">
	.st0{stroke:#000000;stroke-width:2;stroke-miterlimit:10;}
</style><path
     style="opacity:1;fill:#000000;fill-opacity:1;fill-rule:evenodd;stroke:#000000;stroke-width:0;stroke-linecap:round;stroke-linejoin:round;stroke-miterlimit:4;stroke-dasharray:none;stroke-opacity:1"
     d="M 9.0390625 0 A 8.9618645 9 0 0 0 0.076171875 9 A 8.9618645 9 0 0 0 9.0390625 18 A 8.9618645 9 0 0 0 14.359375 16.230469 L 16.162109 18.150391 L 18.056641 16.373047 L 16.199219 14.396484 A 8.9618645 9 0 0 0 18 9 A 8.9618645 9 0 0 0 9.0390625 0 z M 9.1152344 2.7460938 A 6.5211864 6.2161016 0 0 1 15.634766 8.9609375 A 6.5211864 6.2161016 0 0 1 14.117188 12.945312 L 13.222656 13.785156 A 6.5211864 6.2161016 0 0 1 9.1152344 15.177734 A 6.5211864 6.2161016 0 0 1 2.59375 8.9609375 A 6.5211864 6.2161016 0 0 1 9.1152344 2.7460938 z "
     id="path4161" /><path
     inkscape:connector-curvature="0"
     style="opacity:1;fill:#000000;fill-opacity:1;stroke:#ffffff;stroke-width:0;stroke-linecap:butt;stroke-linejoin:miter;stroke-miterlimit:4;stroke-dasharray:none"
     d="m 4.6905261,4.4621102 0,8.9232388 8.7714899,0 0,-6.1081191 A 2.4647308,2.3412859 0 0 1 11.297823,8.4994222 2.4647308,2.3412859 0 0 1 8.8328601,6.1583878 2.4647308,2.3412859 0 0 1 9.6002081,4.4621102 l -4.909682,0 z"
     id="rect4136" /></svg>