<?xml version="1.0" encoding="UTF-8" standalone="no"?>
<!-- Generator: Adobe Illustrator 19.2.0, SVG Export Plug-In . SVG Version: 6.00 Build 0)  -->

<svg
   xmlns:dc="http://purl.org/dc/elements/1.1/"
   xmlns:cc="http://creativecommons.org/ns#"
   xmlns:rdf="http://www.w3.org/1999/02/22-rdf-syntax-ns#"
   xmlns:svg="http://www.w3.org/2000/svg"
   xmlns="http://www.w3.org/2000/svg"
   xmlns:sodipodi="http://sodipodi.sourceforge.net/DTD/sodipodi-0.dtd"
   xmlns:inkscape="http://www.inkscape.org/namespaces/inkscape"
   version="1.1"
   id="Layer_1"
   x="0px"
   y="0px"
   viewBox="0 0 8 8"
   xml:space="preserve"
   inkscape:version="0.48.4 r9939"
   width="100%"
   height="100%"
   sodipodi:docname="cut.svg"><metadata
     id="metadata15"><rdf:RDF><cc:Work
         rdf:about=""><dc:format>image/svg+xml</dc:format><dc:type
           rdf:resource="http://purl.org/dc/dcmitype/StillImage" /></cc:Work></rdf:RDF></metadata><defs
     id="defs13" /><sodipodi:namedview
     pagecolor="#ffffff"
     bordercolor="#666666"
     borderopacity="1"
     objecttolerance="10"
     gridtolerance="10"
     guidetolerance="10"
     inkscape:pageopacity="0"
     inkscape:pageshadow="2"
     inkscape:window-width="1366"
     inkscape:window-height="719"
     id="namedview11"
     showgrid="false"
     inkscape:zoom="66.625"
     inkscape:cx="4"
     inkscape:cy="4"
     inkscape:window-x="0"
     inkscape:window-y="0"
     inkscape:window-maximized="1"
     inkscape:current-layer="Layer_1" /><style
     type="text/css"
     id="style3">
	.st0{stroke:#000000;stroke-width:0.75;stroke-miterlimit:10;}
</style><g
     id="g5"
     transform="matrix(0.39293816,-0.00143783,0.00139275,0.4423536,0.490382,0.04637353)"><path
       class="st0"
       d="M 13.590867,13.734551 C 13.490867,13.734551 12.7,13.6 12.5,13.5 12.3,13.5 12.205699,12.367063 11.705699,11.567063 11.205699,10.767063 10.5,10.5 10.1,10.4 L 10,10 C 11.1,8.7 13.2,6.7 14.4,4.8 15.8,2.5 14.7,0.7 14.7,0.7 L 9.1,9.2 3.5356851,0.63222991 C 3.5356851,0.63222991 2.3,2.4 3.7,4.7 4.9,6.7 7,8.7 8.2,10 L 8.1,10.5 C 7.7,10.7 6.8805504,10.695052 6.3805504,11.495052 5.8805504,12.295052 5.9,13.5 5.7,13.6 c -0.2,0 -0.7,0.1 -0.8,0.1 -1.0519477,0.06199 -1.8822143,1.266619 -1.6822143,2.266619 0.1,1.1 1.6529829,1.867554 2.7529829,1.667554 1.1,-0.1 1.9055059,-1.199994 1.7055059,-2.299994 C 7.6762745,14.934179 7.4,14.5 7.1,14.2 7.1,14.2 6.4374758,13.303706 7.6374758,11.903706 8.1374758,11.303706 8.9,11 8.9,11 l 0.4,0 c 0,0 0.6464889,0.303085 1.246489,1.003085 1.2,1.4 0.831108,1.85786 0.731108,1.95786 -0.3,0.3 -0.668824,1.106295 -0.768824,1.506295 -0.2,1.1 0.791227,2.03276 1.891227,2.23276 1.1,0.1 2.290987,-0.599379 2.490987,-1.699379 0.2,-1.1 -0.399519,-2.135722 -1.30012,-2.26607 z M 6.8,15.6 c 0,0.8 -0.6,1.3 -1.4,1.3 -0.8,0 -1.4,-0.6 -1.4,-1.4 0,-0.8 0.6,-1.4 1.4,-1.4 0.8,0.2 1.4,0.8 1.4,1.5 z m 5.9,1.4 c -0.7,0 -1.4,-0.6 -1.4,-1.4 0,-0.7 0.6,-1.4 1.4,-1.4 0.7,0 1.4,0.6 1.4,1.4 0,0.7 -0.6,1.4 -1.4,1.4 z"
       id="path7"
       inkscape:connector-curvature="0"
       style="stroke:#000000;stroke-width:0.75;stroke-miterlimit:10"
       sodipodi:nodetypes="ccscccccccccscccccccccssccscssscssssss" /><ellipse
       transform="matrix(0.0040521,-1,1,0.0040521,-1.1077,19.2297)"
       class="st0"
       cx="9.1000004"
       cy="10.2"
       rx="0.30000001"
       ry="0.30000001"
       id="ellipse9"
       sodipodi:cx="9.1000004"
       sodipodi:cy="10.2"
       sodipodi:rx="0.30000001"
       sodipodi:ry="0.30000001"
       style="stroke:#000000;stroke-width:0.75;stroke-miterlimit:10"
       d="m 9.4000004,10.2 c 0,0.165685 -0.1343146,0.3 -0.3,0.3 -0.1656855,0 -0.3,-0.134315 -0.3,-0.3 0,-0.165686 0.1343145,-0.3000002 0.3,-0.3000002 0.1656854,0 0.3,0.1343142 0.3,0.3000002 z" /></g></svg>