<?xml version="1.0" encoding="UTF-8" standalone="no"?>
<!-- Generator: Adobe Illustrator 19.2.0, SVG Export Plug-In . SVG Version: 6.00 Build 0)  -->

<svg
   xmlns:dc="http://purl.org/dc/elements/1.1/"
   xmlns:cc="http://creativecommons.org/ns#"
   xmlns:rdf="http://www.w3.org/1999/02/22-rdf-syntax-ns#"
   xmlns:svg="http://www.w3.org/2000/svg"
   xmlns="http://www.w3.org/2000/svg"
   xmlns:sodipodi="http://sodipodi.sourceforge.net/DTD/sodipodi-0.dtd"
   xmlns:inkscape="http://www.inkscape.org/namespaces/inkscape"
   version="1.1"
   id="Layer_1"
   x="0px"
   y="0px"
   viewBox="0 0 8 8"
   xml:space="preserve"
   inkscape:version="0.48.4 r9939"
   width="100%"
   height="100%"
   sodipodi:docname="orbit.svg"><metadata
     id="metadata13"><rdf:RDF><cc:Work
         rdf:about=""><dc:format>image/svg+xml</dc:format><dc:type
           rdf:resource="http://purl.org/dc/dcmitype/StillImage" /></cc:Work></rdf:RDF></metadata><defs
     id="defs11" /><sodipodi:namedview
     pagecolor="#ffffff"
     bordercolor="#666666"
     borderopacity="1"
     objecttolerance="10"
     gridtolerance="10"
     guidetolerance="10"
     inkscape:pageopacity="0"
     inkscape:pageshadow="2"
     inkscape:window-width="1366"
     inkscape:window-height="719"
     id="namedview9"
     showgrid="false"
     inkscape:zoom="66.625"
     inkscape:cx="4"
     inkscape:cy="4"
     inkscape:window-x="0"
     inkscape:window-y="0"
     inkscape:window-maximized="1"
     inkscape:current-layer="Layer_1" /><style
     type="text/css"
     id="style3">
	.st0{stroke:#000000;stroke-width:0.75;stroke-linejoin:round;stroke-miterlimit:10;}
</style><path
     class="st0"
     d="m 1.22475,3.0011332 c -0.26400005,-0.088 -0.1118644,-0.176 -1.03586445,0.176 l 0,1.012 c 0,0.176 1.35355935,0.8635933 3.11355935,0.9075933 1.4079999,0.044 2.3864407,-0.3795933 3.3544407,-0.5555933 l 0,0.9515933 1.188,-1.7435933 -1.276,-1.1715932 0,1.0395932 c -1.144,0.22 -2.7048813,0.1088813 -3.4968813,0.064881 -1.364,-0.088 -1.8271187,-0.064881 -2.17911875,-0.284881 0.26400005,-0.264 0.24386445,-0.396 0.33186445,-0.396 z"
     id="path5"
     inkscape:connector-curvature="0"
     style="stroke:#000000;stroke-width:0.33000001;stroke-linejoin:round;stroke-miterlimit:10"
     sodipodi:nodetypes="ccsccccccccc" /><path
     class="st0"
     d="m 5.0915296,6.69415 c 0.088,0.308 0.025356,0.5309832 -0.282644,1.1469832 l -1.056,0 c -0.176,0 -1.0209492,-1.2633223 -1.0649492,-3.0233223 0,-1.4079997 0.5809492,-2.5206777 0.7569492,-3.4446777 l -1.2767458,0 2.1127458,-1.18799999 1.171593,1.30955929 -1.039593,-0.033559 c -0.22,1.144 -0.1424408,2.7048813 -0.098441,3.4528815 0.088,1.32 0.1424408,1.9591185 0.3624408,2.3111185 0.264,-0.22 0.414644,-0.3989832 0.414644,-0.5309832 z"
     id="path7"
     inkscape:connector-curvature="0"
     style="stroke:#000000;stroke-width:0.33000001;stroke-linejoin:round;stroke-miterlimit:10"
     sodipodi:nodetypes="ccsccccccccc" /></svg>