<?xml version="1.0" encoding="UTF-8" standalone="no"?>
<!-- Generator: Adobe Illustrator 19.2.0, SVG Export Plug-In . SVG Version: 6.00 Build 0)  -->

<svg
   xmlns:dc="http://purl.org/dc/elements/1.1/"
   xmlns:cc="http://creativecommons.org/ns#"
   xmlns:rdf="http://www.w3.org/1999/02/22-rdf-syntax-ns#"
   xmlns:svg="http://www.w3.org/2000/svg"
   xmlns="http://www.w3.org/2000/svg"
   xmlns:sodipodi="http://sodipodi.sourceforge.net/DTD/sodipodi-0.dtd"
   xmlns:inkscape="http://www.inkscape.org/namespaces/inkscape"
   version="1.1"
   id="Layer_1"
   x="0px"
   y="0px"
   viewBox="0 0 8 8"
   xml:space="preserve"
   inkscape:version="0.48.4 r9939"
   width="100%"
   height="100%"
   sodipodi:docname="pan.svg"><metadata
     id="metadata11"><rdf:RDF><cc:Work
         rdf:about=""><dc:format>image/svg+xml</dc:format><dc:type
           rdf:resource="http://purl.org/dc/dcmitype/StillImage" /></cc:Work></rdf:RDF></metadata><defs
     id="defs9" /><sodipodi:namedview
     pagecolor="#ffffff"
     bordercolor="#666666"
     borderopacity="1"
     objecttolerance="10"
     gridtolerance="10"
     guidetolerance="10"
     inkscape:pageopacity="0"
     inkscape:pageshadow="2"
     inkscape:window-width="744"
     inkscape:window-height="480"
     id="namedview7"
     showgrid="false"
     inkscape:zoom="29.5"
     inkscape:cx="4"
     inkscape:cy="4"
     inkscape:window-x="0"
     inkscape:window-y="0"
     inkscape:window-maximized="0"
     inkscape:current-layer="Layer_1" /><style
     type="text/css"
     id="style3">
	.st0{stroke:#000000;stroke-width:0.25;stroke-miterlimit:10;}
</style><path
     class="st0"
     d="m 4.6119139,7.8959731 c 1.3926153,0 2.2496093,-0.2591767 2.4102963,-1.0799052 0.374934,-1.7710462 0.482059,-4.6651945 0.535621,-5.0539607 0,-0.3887661 -0.696308,-0.3887661 -0.74987,-0.043196 -0.05356,0.6479437 -0.160686,1.3390835 -0.214248,1.9438309 0,0.2159812 -0.48206,0.2159812 -0.48206,-0.043196 0,-0.9503173 0.160687,-2.1598121 0.160687,-2.80775566 0,-0.4751587 -0.910556,-0.4751587 -0.910556,-0.043196 0,0.82072856 -0.107125,2.37579326 -0.107125,2.54857826 0,0.3023736 -0.5356216,0.3023736 -0.5356216,0 0,-0.4319624 0.053562,-2.37579336 0,-2.85095196 0,-0.4751588 -0.9641185,-0.4319624 -0.9641185,0.043196 0,0.95031726 0,2.80775566 0,2.93734436 0,0.2159813 -0.4284971,0.3023738 -0.4284971,0 C 3.27286,2.582836 3.27286,1.3733413 3.2192977,0.98457514 3.1657357,0.50941644 2.3623034,0.63900514 2.3087413,1.0709671 2.2551793,1.8053032 2.4694277,4.6562551 2.2551793,4.8290405 1.9338063,5.0882179 1.3446227,3.7059381 1.0232498,3.4899569 0.75543914,3.3171719 0.11269344,3.5763494 0.32694204,3.9219193 0.86256344,4.8290407 1.2910606,5.6929653 1.6659955,6.2113204 2.201617,7.0320485 2.576552,7.8959731 4.6119139,7.8959731 z"
     id="path5"
     inkscape:connector-curvature="0"
     style="stroke:#000000;stroke-width:0.1202519;stroke-miterlimit:10" /></svg>