<?xml version="1.0" encoding="UTF-8" standalone="no"?>
<!-- Generator: Adobe Illustrator 19.2.0, SVG Export Plug-In . SVG Version: 6.00 Build 0)  -->

<svg
   xmlns:dc="http://purl.org/dc/elements/1.1/"
   xmlns:cc="http://creativecommons.org/ns#"
   xmlns:rdf="http://www.w3.org/1999/02/22-rdf-syntax-ns#"
   xmlns:svg="http://www.w3.org/2000/svg"
   xmlns="http://www.w3.org/2000/svg"
   xmlns:sodipodi="http://sodipodi.sourceforge.net/DTD/sodipodi-0.dtd"
   xmlns:inkscape="http://www.inkscape.org/namespaces/inkscape"
   version="1.1"
   id="Layer_1"
   x="0px"
   y="0px"
   viewBox="0 0 8 8"
   xml:space="preserve"
   inkscape:version="0.48.4 r9939"
   width="100%"
   height="100%"
   sodipodi:docname="view-prev.svg"><metadata
     id="metadata15"><rdf:RDF><cc:Work
         rdf:about=""><dc:format>image/svg+xml</dc:format><dc:type
           rdf:resource="http://purl.org/dc/dcmitype/StillImage" /></cc:Work></rdf:RDF></metadata><defs
     id="defs13" /><sodipodi:namedview
     pagecolor="#ffffff"
     bordercolor="#666666"
     borderopacity="1"
     objecttolerance="10"
     gridtolerance="10"
     guidetolerance="10"
     inkscape:pageopacity="0"
     inkscape:pageshadow="2"
     inkscape:window-width="1366"
     inkscape:window-height="719"
     id="namedview11"
     showgrid="false"
     inkscape:zoom="66.625"
     inkscape:cx="4"
     inkscape:cy="4"
     inkscape:window-x="0"
     inkscape:window-y="0"
     inkscape:window-maximized="1"
     inkscape:current-layer="Layer_1" /><style
     type="text/css"
     id="style3">
	.st0{fill:#FFFFFF;}
	.st1{stroke:#000000;stroke-width:0.75;stroke-linejoin:round;stroke-miterlimit:10;}
</style><path
     d="M 7.728169,6.8714824 H 0.26896902 c -0.1332,0 -0.2664,-0.0888 -0.2664,-0.2664 v -4.3512 c 0,-0.1332 0.0888,-0.2664 0.2664,-0.2664 H 2.666569 l 0,-0.7548 c 0,-0.1332 0.0888,-0.222 0.222,-0.222 h 1.11 1.0656 c 0.1332,-0.0444 0.2664,0.0888 0.2664,0.222 l 0,0.7548 h 2.442 c 0.1332,0 0.222,0.1332 0.222,0.2664 v 4.3956 c 0,0.1332 -0.0888,0.222 -0.2664,0.222 z"
     id="path5"
     inkscape:connector-curvature="0" /><circle
     class="st0"
     cx="9"
     cy="9.1999998"
     r="4.5"
     id="circle7"
     sodipodi:cx="9"
     sodipodi:cy="9.1999998"
     sodipodi:rx="4.5"
     sodipodi:ry="4.5"
     style="fill:#ffffff"
     transform="matrix(0.444,0,0,0.444,0.00256902,0.34468245)" /><polygon
     class="st1"
     points="6.2,9.2 9.6,5.8 10.5,6.7 8,9.2 10.5,11.6 9.6,12.5 "
     id="polygon9"
     style="stroke:#000000;stroke-width:0.75;stroke-linejoin:round;stroke-miterlimit:10"
     transform="matrix(0.57902455,0,0,0.48585343,-1.0123156,-0.01576233)" /></svg>