<?xml version="1.0" encoding="UTF-8" standalone="no"?>
<!-- Generator: Adobe Illustrator 19.2.0, SVG Export Plug-In . SVG Version: 6.00 Build 0)  -->

<svg
   xmlns:dc="http://purl.org/dc/elements/1.1/"
   xmlns:cc="http://creativecommons.org/ns#"
   xmlns:rdf="http://www.w3.org/1999/02/22-rdf-syntax-ns#"
   xmlns:svg="http://www.w3.org/2000/svg"
   xmlns="http://www.w3.org/2000/svg"
   xmlns:sodipodi="http://sodipodi.sourceforge.net/DTD/sodipodi-0.dtd"
   xmlns:inkscape="http://www.inkscape.org/namespaces/inkscape"
   version="1.1"
   id="Layer_1"
   x="0px"
   y="0px"
   viewBox="0 0 8 8"
   xml:space="preserve"
   inkscape:version="0.48.4 r9939"
   width="100%"
   height="100%"
   sodipodi:docname="next view.svg"><metadata
     id="metadata15"><rdf:RDF><cc:Work
         rdf:about=""><dc:format>image/svg+xml</dc:format><dc:type
           rdf:resource="http://purl.org/dc/dcmitype/StillImage" /></cc:Work></rdf:RDF></metadata><defs
     id="defs13" /><sodipodi:namedview
     pagecolor="#ffffff"
     bordercolor="#666666"
     borderopacity="1"
     objecttolerance="10"
     gridtolerance="10"
     guidetolerance="10"
     inkscape:pageopacity="0"
     inkscape:pageshadow="2"
     inkscape:window-width="744"
     inkscape:window-height="480"
     id="namedview11"
     showgrid="false"
     inkscape:zoom="29.5"
     inkscape:cx="4"
     inkscape:cy="4"
     inkscape:window-x="0"
     inkscape:window-y="0"
     inkscape:window-maximized="0"
     inkscape:current-layer="Layer_1" /><style
     type="text/css"
     id="style3">
	.st0{fill:#FFFFFF;}
	.st1{stroke:#000000;stroke-width:0.75;stroke-linejoin:round;stroke-miterlimit:10;}
</style><path
     d="M 0.28115254,6.7951179 H 7.7171525 c 0.132,0 0.264,-0.088 0.264,-0.264 v -4.312 c 0,-0.132 -0.088,-0.264 -0.264,-0.264 h -2.42 l 0,-0.748 c 0,-0.132 -0.088,-0.22000003 -0.22,-0.22000003 h -1.1 -1.056 c -0.132,-0.044 -0.264,0.088 -0.264,0.22000003 l 0,0.748 H 0.28115254 c -0.176,0 -0.264,0.132 -0.264,0.264 l 0,4.356 c 0,0.132 0.088,0.22 0.264,0.22 z"
     id="path5"
     inkscape:connector-curvature="0" /><circle
     class="st0"
     cx="9"
     cy="9.1999998"
     r="4.5"
     id="circle7"
     sodipodi:cx="9"
     sodipodi:cy="9.1999998"
     sodipodi:rx="4.5"
     sodipodi:ry="4.5"
     style="fill:#ffffff"
     transform="matrix(0.44,0,0,0.44,0.01715254,0.32711787)" /><polygon
     class="st1"
     points="8.4,12.5 11.8,9.2 8.4,5.8 7.5,6.7 10,9.2 7.5,11.6 "
     id="polygon9"
     style="stroke:#000000;stroke-width:0.75;stroke-linejoin:round;stroke-miterlimit:10"
     transform="matrix(0.60172269,0,0,0.42742485,-1.6790645,0.42523132)" /></svg>