<?xml version="1.0" encoding="UTF-8" standalone="no"?>
<!-- Generator: Adobe Illustrator 19.2.0, SVG Export Plug-In . SVG Version: 6.00 Build 0)  -->

<svg
   xmlns:dc="http://purl.org/dc/elements/1.1/"
   xmlns:cc="http://creativecommons.org/ns#"
   xmlns:rdf="http://www.w3.org/1999/02/22-rdf-syntax-ns#"
   xmlns:svg="http://www.w3.org/2000/svg"
   xmlns="http://www.w3.org/2000/svg"
   xmlns:sodipodi="http://sodipodi.sourceforge.net/DTD/sodipodi-0.dtd"
   xmlns:inkscape="http://www.inkscape.org/namespaces/inkscape"
   version="1.1"
   id="Layer_1"
   x="0px"
   y="0px"
   viewBox="0 0 8 8"
   xml:space="preserve"
   inkscape:version="0.48.4 r9939"
   width="100%"
   height="100%"
   sodipodi:docname="zoom.svg"><metadata
     id="metadata11"><rdf:RDF><cc:Work
         rdf:about=""><dc:format>image/svg+xml</dc:format><dc:type
           rdf:resource="http://purl.org/dc/dcmitype/StillImage" /></cc:Work></rdf:RDF></metadata><defs
     id="defs9" /><sodipodi:namedview
     pagecolor="#ffffff"
     bordercolor="#666666"
     borderopacity="1"
     objecttolerance="10"
     gridtolerance="10"
     guidetolerance="10"
     inkscape:pageopacity="0"
     inkscape:pageshadow="2"
     inkscape:window-width="1366"
     inkscape:window-height="719"
     id="namedview7"
     showgrid="false"
     inkscape:zoom="66.625"
     inkscape:cx="4"
     inkscape:cy="4"
     inkscape:window-x="0"
     inkscape:window-y="0"
     inkscape:window-maximized="1"
     inkscape:current-layer="Layer_1" /><style
     type="text/css"
     id="style3">
	.st0{stroke:#000000;stroke-miterlimit:10;}
</style><path
     class="st0"
     d="M 5.1672389,4.7996426 C 5.6114253,4.3125024 5.8779372,3.6925057 5.8779372,2.9839381 c 0,-1.5057062 -1.2437221,-2.74569952 -2.7983745,-2.74569952 -1.5546526,0 -2.84279327,1.23999332 -2.84279327,2.74569952 0,1.5057062 1.28814067,2.7456996 2.84279327,2.7456996 0.5330237,0 1.2017413,-0.2679409 1.6015091,-0.5336537 l 2.5006249,2.4964812 c 0.372187,0.2394075 0.7413265,0.03596 0.561214,-0.4106079 z M 4.4565405,4.8439286 C 4.0567728,5.1096415 3.5681677,5.2867834 3.0795627,5.2867834 c -1.3325594,0 -2.39860684,-1.0628515 -2.39860684,-2.3471303 0,-1.2842788 1.06604744,-2.34713021 2.39860684,-2.34713021 1.3325592,0 2.3986067,1.06285141 2.3986067,2.34713021 0,0.7971386 -0.3997678,1.5057062 -1.0216289,1.9042755 z"
     id="path5"
     inkscape:connector-curvature="0"
     style="stroke:#000000;stroke-width:0.4435201;stroke-miterlimit:10"
     sodipodi:nodetypes="csssscccccssssc" /></svg>