<?xml version="1.0" encoding="utf-8"?>
<!-- Generator: Adobe Illustrator 19.2.0, SVG Export Plug-In . SVG Version: 6.00 Build 0)  -->
<svg version="1.1" id="Layer_1" xmlns="http://www.w3.org/2000/svg" xmlns:xlink="http://www.w3.org/1999/xlink" x="0px" y="0px"
	 viewBox="0 0 18 18" style="enable-background:new 0 0 18 18;" xml:space="preserve">
<path d="M12.6,15.6v1.9c0,0.3-0.2,0.5-0.5,0.5H1.8c-0.3,0-0.5-0.2-0.5-0.5V4.3c0-0.3,0.2-0.5,0.5-0.5l2,0v11.3
	c0,0.3,0.2,0.5,0.5,0.5H12.6z"/>
<g>
	<path d="M16.7,5.5v8.2c0,0.3-0.2,0.5-0.5,0.5H5.9c-0.3,0-0.5-0.2-0.5-0.5V0.4C5.5,0.2,5.7,0,5.9,0l5.3,0c0.3,0,0.5,0.2,0.5,0.5v4.1
		c0,0.3,0.2,0.5,0.5,0.5H14l2.3,0C16.5,5.1,16.7,5.3,16.7,5.5z"/>
	<path d="M16.5,3.2l-2.6,0c-0.1,0-0.2-0.1-0.2-0.2V0.2c0-0.2,0.3-0.3,0.4-0.2l2.6,2.7C16.8,3,16.7,3.2,16.5,3.2z"/>
</g>
</svg>
