<?xml version="1.0" encoding="utf-8"?>
<!-- Generator: Adobe Illustrator 19.2.0, SVG Export Plug-In . SVG Version: 6.00 Build 0)  -->
<svg version="1.1" id="Layer_1" xmlns="http://www.w3.org/2000/svg" xmlns:xlink="http://www.w3.org/1999/xlink" x="0px" y="0px"
	 viewBox="0 0 18 18" style="enable-background:new 0 0 18 18;" xml:space="preserve">
<path d="M1.7,17.8l-1.5-1.5C0,16,0,15.6,0.2,15.4L15.4,0.2C15.6,0,16,0,16.3,0.2l1.5,1.5C18,2,18,2.4,17.8,2.6L2.6,17.8
	C2.4,18,2,18,1.7,17.8z"/>
<path d="M17.8,16.3l-1.5,1.5c-0.2,0.2-0.6,0.2-0.8,0L0.2,2.6C0,2.4,0,2,0.2,1.7l1.5-1.5C2,0,2.4,0,2.6,0.2l15.2,15.2
	C18,15.6,18,16,17.8,16.3z"/>
</svg>
