<?xml version="1.0" encoding="utf-8"?>
<!-- Generator: Adobe Illustrator 19.2.0, SVG Export Plug-In . SVG Version: 6.00 Build 0)  -->
<svg version="1.1" id="Layer_1" xmlns="http://www.w3.org/2000/svg" xmlns:xlink="http://www.w3.org/1999/xlink" x="0px" y="0px"
	 viewBox="0 0 18 18" style="enable-background:new 0 0 18 18;" xml:space="preserve">
<style type="text/css">
	.st0{fill:#010101;stroke:#010101;stroke-width:0.5;stroke-miterlimit:10;}
	.st1{fill:#010101;}
</style>
<g>
	<rect x="14.2" y="12.5" class="st0" width="1.2" height="5.3"/>
	<rect x="12.1" y="14.6" class="st0" width="5.3" height="1.2"/>
</g>
<path class="st1" d="M16.7,5.8v5.7c-0.6-0.3-1.2-0.5-1.9-0.5s-1.4,0.2-2,0.5c-1.3,0.7-2.2,2.1-2.2,3.7c0,0.3,0,0.7,0.1,1
	c0.2,0.7,0.5,1.3,1,1.8H7.1c-0.1,0-0.2-0.1-0.2-0.2v-12c0-0.1,0.1-0.2,0.2-0.2h9.5C16.7,5.7,16.7,5.7,16.7,5.8z"/>
<path class="st1" d="M13.3,2.7v1H5.1C5,3.8,4.9,3.8,4.9,4v10.8H3.6V2.9c0-0.1,0.1-0.2,0.2-0.2L13.3,2.7C13.3,2.7,13.3,2.7,13.3,2.7z
	"/>
<path class="st1" d="M9.7,0v1H1.5c-0.1,0-0.2,0.1-0.2,0.2v10.8H0V0.2C0,0.1,0.1,0,0.2,0L9.7,0C9.7,0,9.7,0,9.7,0z"/>
</svg>
