<?xml version="1.0" encoding="utf-8"?>
<!-- Generator: Adobe Illustrator 19.2.0, SVG Export Plug-In . SVG Version: 6.00 Build 0)  -->
<svg version="1.1" id="Layer_1" xmlns="http://www.w3.org/2000/svg" xmlns:xlink="http://www.w3.org/1999/xlink" x="0px" y="0px"
	 viewBox="0 0 18 18" style="enable-background:new 0 0 18 18;" xml:space="preserve">
<style type="text/css">
	.st0{fill:#939393;}
</style>
<path d="M15.1,0L2.9,0C2.6,0,2.5,0.3,2.6,0.5l6.1,6.2c0.1,0.1,0.3,0.1,0.4,0l6.1-6.2C15.5,0.3,15.4,0,15.1,0z"/>
<path d="M15.5,9.6h-13c-0.2,0-0.4-0.2-0.4-0.4V8.7c0-0.2,0.2-0.4,0.4-0.4h13c0.2,0,0.4,0.2,0.4,0.4v0.5C15.9,9.5,15.7,9.6,15.5,9.6z
	"/>
<path class="st0" d="M2.9,18h12.3c0.3,0,0.4-0.3,0.2-0.5l-6.1-6.2c-0.1-0.1-0.3-0.1-0.4,0l-6.1,6.2C2.5,17.7,2.6,18,2.9,18z"/>
</svg>
