<?xml version="1.0" encoding="utf-8"?>
<!-- Generator: Adobe Illustrator 19.2.0, SVG Export Plug-In . SVG Version: 6.00 Build 0)  -->
<svg version="1.1" id="Layer_1" xmlns="http://www.w3.org/2000/svg" xmlns:xlink="http://www.w3.org/1999/xlink" x="0px" y="0px"
	 viewBox="0 0 18 18" style="enable-background:new 0 0 18 18;" xml:space="preserve">
<style type="text/css">
	.st0{fill:#939393;}
	.st1{fill:none;stroke:#000000;stroke-linejoin:round;stroke-miterlimit:10;}
	.st2{fill:none;stroke:#000000;stroke-linecap:round;stroke-linejoin:round;stroke-miterlimit:10;}
	.st3{fill:#939393;stroke:#000000;stroke-linejoin:round;stroke-miterlimit:10;}
</style>
<polygon class="st0" points="9.3,17.5 0.2,14.2 0.2,3.3 9.3,6 "/>
<polygon class="st1" points="9.3,17.5 0.5,14 0.5,2.9 9,0.5 17.5,2.7 17.5,14 "/>
<polyline class="st2" points="0.5,3.1 9.3,6 17.5,2.9 "/>
<line class="st3" x1="9.3" y1="6" x2="9.3" y2="17.6"/>
<g>
	<ellipse transform="matrix(0.9382 -0.346 0.346 0.9382 -3.2297 3.446)" cx="8" cy="10.8" rx="0.5" ry="0.5"/>
	<g>
		<ellipse transform="matrix(0.9382 -0.346 0.346 0.9382 -3.573 2.8348)" cx="6.2" cy="11.4" rx="0.5" ry="0.5"/>
		<ellipse transform="matrix(0.9382 -0.346 0.346 0.9382 -3.9449 2.2041)" cx="4.2" cy="12.2" rx="0.5" ry="0.5"/>
		<ellipse transform="matrix(0.9382 -0.346 0.346 0.9382 -4.3169 1.5734)" cx="2.2" cy="12.9" rx="0.5" ry="0.5"/>
	</g>
</g>
<g>
	<ellipse transform="matrix(0.3384 -0.941 0.941 0.3384 -1.5855 23.4925)" cx="15.9" cy="12.9" rx="0.5" ry="0.5"/>
	<g>
		<ellipse transform="matrix(0.3384 -0.941 0.941 0.3384 -2.1391 21.2662)" cx="14.1" cy="12.2" rx="0.5" ry="0.5"/>
		<ellipse transform="matrix(0.3384 -0.941 0.941 0.3384 -2.7661 18.9536)" cx="12.1" cy="11.4" rx="0.5" ry="0.5"/>
		<ellipse transform="matrix(0.3384 -0.941 0.941 0.3384 -3.3931 16.6411)" cx="10.1" cy="10.7" rx="0.5" ry="0.5"/>
	</g>
</g>
<g>
	<ellipse transform="matrix(1 -3.832616e-003 3.832616e-003 1 -3.172122e-002 3.449687e-002)" cx="9" cy="8.3" rx="0.5" ry="0.5"/>
	<g>
		<ellipse transform="matrix(1 -3.832616e-003 3.832616e-003 1 -2.404958e-002 3.461314e-002)" cx="9" cy="6.3" rx="0.5" ry="0.5"/>
		<ellipse transform="matrix(1 -3.832616e-003 3.832616e-003 1 -1.603580e-002 3.456733e-002)" cx="9" cy="4.2" rx="0.5" ry="0.5"/>
		<ellipse transform="matrix(1 -3.832616e-003 3.832616e-003 1 -8.022021e-003 3.452152e-002)" cx="9" cy="2.1" rx="0.5" ry="0.5"/>
	</g>
</g>
</svg>
