<?xml version="1.0" encoding="utf-8"?>
<!-- Generator: Adobe Illustrator 19.2.0, SVG Export Plug-In . SVG Version: 6.00 Build 0)  -->
<svg version="1.1" id="Layer_1" xmlns="http://www.w3.org/2000/svg" xmlns:xlink="http://www.w3.org/1999/xlink" x="0px" y="0px"
	 viewBox="0 0 18 18" style="enable-background:new 0 0 18 18;" xml:space="preserve">
<style type="text/css">
	.st0{fill:none;}
	.st1{fill:#FFFFFF;}
</style>
<g>
	<path class="st0" d="M13.2-2.2"/>
</g>
<path d="M9.3,2.8v8.4c0,0.2,0.1,0.3,0.3,0.3h8.1c0.2,0,0.3-0.1,0.3-0.3V2.8c0-0.2-0.1-0.3-0.3-0.3H9.6C9.4,2.5,9.3,2.6,9.3,2.8z"/>
<path class="st1" d="M10.3,3.1v7.7h0c2,0,3.6-1.7,3.6-3.9c0-2-1.4-3.7-3.3-3.9H10.3z"/>
<path d="M8.7,2.8v8.4c0,0.2-0.1,0.3-0.3,0.3H0.3c-0.2,0-0.3-0.1-0.3-0.3l0-8.4c0-0.2,0.1-0.3,0.3-0.3h8.1C8.6,2.5,8.7,2.6,8.7,2.8z"
	/>
<path class="st1" d="M7.7,3.1v7.7h0C5.6,10.9,4,9.1,4,7c0-2,1.4-3.7,3.3-3.9H7.7z"/>
<path d="M6.7,13.1H2.1c-0.2,0-0.3-0.1-0.3-0.3v-0.3c0-0.2,0.1-0.3,0.3-0.3h4.6c0.2,0,0.3,0.1,0.3,0.3v0.3C7,13,6.8,13.1,6.7,13.1z"
	/>
<path d="M15.9,13.1h-4.6c-0.2,0-0.3-0.1-0.3-0.3v-0.3c0-0.2,0.1-0.3,0.3-0.3h4.6c0.2,0,0.3,0.1,0.3,0.3v0.3
	C16.2,13,16.1,13.1,15.9,13.1z"/>
</svg>
