<?xml version="1.0" encoding="utf-8"?>
<!-- Generator: Adobe Illustrator 19.2.0, SVG Export Plug-In . SVG Version: 6.00 Build 0)  -->
<svg version="1.1" id="Layer_1" xmlns="http://www.w3.org/2000/svg" xmlns:xlink="http://www.w3.org/1999/xlink" x="0px" y="0px"
	 viewBox="0 0 18 18" style="enable-background:new 0 0 18 18;" xml:space="preserve">
<style type="text/css">
	.st0{fill:#FFFFFF;}
</style>
<path d="M0.6,16h16.9c0.3,0,0.6-0.2,0.6-0.6V5.5C18,5.2,17.7,5,17.4,5H12l0-1.7c0-0.3-0.2-0.5-0.5-0.5H9H6.6C6.3,2.7,6,2.9,6,3.2
	L6,5H0.6C0.3,5,0,5.2,0,5.5v9.9C0,15.7,0.3,16,0.6,16z"/>
<circle class="st0" cx="9" cy="10.4" r="4.5"/>
<polygon points="8.1,6.3 6.5,7.9 9,10.4 6.5,12.9 8.1,14.5 12.2,10.4 "/>
</svg>
